<svg xmlns="http://www.w3.org/2000/svg" xmlns:xlink="http://www.w3.org/1999/xlink" width="500" zoomAndPan="magnify" viewBox="0 0 375 374.999991" height="500" preserveAspectRatio="xMidYMid meet" version="1.0"><defs><g/><clipPath id="16e7856216"><path d="M 11.699219 115 L 71 115 L 71 130 L 11.699219 130 Z M 11.699219 115 " clip-rule="nonzero"/></clipPath><clipPath id="56c7ae9b0e"><path d="M 83 115 L 142.949219 115 L 142.949219 130 L 83 130 Z M 83 115 " clip-rule="nonzero"/></clipPath><clipPath id="29122b6918"><path d="M 12 79.023438 L 142.949219 79.023438 L 142.949219 108 L 12 108 Z M 12 79.023438 " clip-rule="nonzero"/></clipPath><clipPath id="8ce562cc21"><path d="M 56 224 L 74 224 L 74 241.773438 L 56 241.773438 Z M 56 224 " clip-rule="nonzero"/></clipPath><clipPath id="b37e35d961"><path d="M 81 224 L 98 224 L 98 241.773438 L 81 241.773438 Z M 81 224 " clip-rule="nonzero"/></clipPath></defs><g fill="#2b2d42" fill-opacity="1"><g transform="translate(150.126247, 185.099056)"><g><path d="M 1.847656 -18.082031 C 1.542969 -17.929688 1.304688 -17.699219 1.125 -17.382812 C 0.898438 -16.980469 0.710938 -16.433594 0.582031 -15.765625 C 0.429688 -15.003906 0.355469 -14.042969 0.355469 -12.851562 C 0.355469 -11.660156 0.40625 -10.433594 0.53125 -9.167969 C 0.644531 -7.902344 0.808594 -6.671875 1.039062 -5.484375 C 1.265625 -4.292969 1.53125 -3.316406 1.835938 -2.570312 C 1.988281 -2.164062 2.191406 -1.761719 2.445312 -1.355469 C 2.695312 -0.949219 3.039062 -0.660156 3.496094 -0.480469 C 4.101562 -0.226562 5 -0.140625 6.203125 -0.214844 C 7.40625 -0.277344 8.382812 -0.34375 9.140625 -0.390625 C 10.382812 -0.441406 11.585938 -0.558594 12.75 -0.710938 C 13.914062 -0.859375 14.878906 -1.050781 15.636719 -1.277344 C 16.144531 -1.429688 16.535156 -1.582031 16.828125 -1.734375 C 17.257812 -1.960938 17.5625 -2.226562 17.738281 -2.53125 C 18.042969 -3.050781 18.144531 -3.824219 18.066406 -4.863281 C 18.019531 -5.316406 17.917969 -5.710938 17.738281 -6.050781 C 17.5625 -6.382812 17.269531 -6.546875 16.878906 -6.519531 C 16.6875 -6.496094 16.472656 -6.457031 16.230469 -6.394531 C 16.117188 -6.355469 16.003906 -6.316406 15.902344 -6.28125 C 15.800781 -6.230469 15.699219 -6.203125 15.597656 -6.179688 C 14.613281 -5.875 13.546875 -5.621094 12.394531 -5.417969 C 11.242188 -5.214844 10.066406 -5.078125 8.875 -4.988281 C 8.558594 -4.964844 8.28125 -4.9375 8.039062 -4.914062 C 7.800781 -4.886719 7.585938 -4.875 7.394531 -4.875 C 7.140625 -5.671875 6.953125 -6.484375 6.800781 -7.292969 C 7.953125 -7.382812 9.105469 -7.535156 10.269531 -7.761719 C 11.421875 -7.976562 12.144531 -8.28125 12.421875 -8.660156 C 12.648438 -8.964844 12.761719 -9.609375 12.761719 -10.597656 C 12.761719 -11.585938 12.382812 -12.078125 11.597656 -12.105469 C 11.207031 -12.105469 10.496094 -12.066406 9.472656 -11.964844 C 8.433594 -11.863281 7.355469 -11.738281 6.242188 -11.609375 C 6.167969 -12.574219 6.128906 -13.597656 6.152344 -14.664062 C 7.46875 -14.890625 8.761719 -15.03125 10.015625 -15.082031 C 11.257812 -15.128906 12.609375 -15.042969 14.066406 -14.8125 C 14.269531 -14.777344 14.484375 -14.738281 14.714844 -14.699219 C 14.941406 -14.648438 15.15625 -14.636719 15.382812 -14.664062 C 16.167969 -14.714844 16.472656 -15.320312 16.308594 -16.472656 C 16.144531 -17.625 15.929688 -18.386719 15.648438 -18.738281 C 15.398438 -19.042969 15.054688 -19.257812 14.625 -19.386719 C 14.195312 -19.511719 13.777344 -19.613281 13.382812 -19.675781 C 11.824219 -19.890625 10.066406 -19.867188 8.117188 -19.585938 C 6.167969 -19.308594 4.496094 -18.941406 3.113281 -18.484375 C 2.898438 -18.410156 2.683594 -18.335938 2.46875 -18.285156 C 2.242188 -18.234375 2.039062 -18.15625 1.847656 -18.082031 Z M 1.847656 -18.082031 "/></g></g></g><g fill="#2b2d42" fill-opacity="1"><g transform="translate(172.045853, 185.099056)"><g><path d="M 11.484375 -10.484375 C 10.382812 -11.089844 9.761719 -11.445312 9.636719 -11.574219 C 8.039062 -12.597656 7.785156 -13.292969 8.875 -13.660156 C 9.40625 -13.660156 9.902344 -13.636719 10.355469 -13.585938 L 11.257812 -13.359375 C 11.789062 -13.257812 12.332031 -13.117188 12.902344 -12.964844 C 13.421875 -12.839844 13.828125 -12.890625 14.105469 -13.105469 C 14.117188 -13.105469 14.144531 -13.128906 14.179688 -13.167969 C 14.511719 -13.445312 14.613281 -13.839844 14.484375 -14.347656 C 14.359375 -14.839844 14.179688 -15.230469 13.980469 -15.511719 C 13.941406 -15.5625 13.914062 -15.597656 13.890625 -15.625 C 13.964844 -15.828125 13.800781 -16.015625 13.394531 -16.195312 C 13.066406 -16.347656 12.777344 -16.484375 12.546875 -16.636719 C 12.292969 -16.75 12.105469 -16.839844 11.976562 -16.890625 C 11.625 -17.015625 11.230469 -17.15625 10.789062 -17.296875 C 7.128906 -17.664062 4.46875 -17.167969 2.8125 -15.816406 C 1.859375 -15.042969 1.253906 -14.144531 0.976562 -13.105469 C 0.695312 -12.066406 0.898438 -11.042969 1.59375 -10.015625 C 1.875 -9.574219 3 -8.6875 4.949219 -7.34375 C 6.304688 -6.40625 7.039062 -5.875 7.152344 -5.75 C 7.152344 -5.722656 7.167969 -5.699219 7.179688 -5.671875 C 7.191406 -5.648438 7.203125 -5.632812 7.230469 -5.621094 C 7.445312 -5.214844 7.355469 -4.914062 6.964844 -4.683594 C 6.835938 -4.609375 6.734375 -4.558594 6.683594 -4.53125 C 5.558594 -4.292969 4.355469 -4.480469 3.089844 -5.089844 C 2.519531 -5.367188 2.011719 -5.699219 1.582031 -6.078125 C 1.558594 -6.089844 1.53125 -6.101562 1.507812 -6.117188 C 1.480469 -6.128906 1.46875 -6.152344 1.457031 -6.179688 C 1.277344 -6.332031 1.050781 -6.457031 0.796875 -6.585938 C 0.53125 -6.710938 0.328125 -6.609375 0.203125 -6.28125 C 0.0742188 -5.976562 0 -5.609375 -0.0234375 -5.152344 C -0.0507812 -4.699219 -0.0742188 -4.316406 -0.0742188 -4 L -0.0742188 -3.898438 C -0.0625 -3.648438 0.0390625 -3.40625 0.226562 -3.203125 C 0.226562 -3.179688 0.242188 -3.164062 0.253906 -3.152344 C 0.265625 -3.128906 0.277344 -3.113281 0.304688 -3.113281 C 0.304688 -3.089844 0.316406 -3.0625 0.328125 -3.050781 L 0.378906 -3.011719 C 0.722656 -2.632812 1.125 -2.292969 1.609375 -2 L 4.027344 -0.886719 C 4.355469 -0.773438 4.773438 -0.671875 5.253906 -0.570312 C 5.191406 -0.46875 5.824219 -0.367188 7.167969 -0.292969 L 7.179688 -0.304688 C 7.179688 -0.304688 7.179688 -0.316406 7.191406 -0.328125 C 8.253906 -0.277344 9.292969 -0.355469 10.292969 -0.570312 C 11.28125 -0.773438 12.128906 -1.125 12.839844 -1.621094 C 13.902344 -2.355469 14.648438 -3.265625 15.066406 -4.355469 C 15.472656 -5.433594 15.460938 -6.40625 15.054688 -7.269531 C 14.648438 -8.128906 13.929688 -8.886719 12.890625 -9.523438 C 12.851562 -9.535156 12.8125 -9.558594 12.789062 -9.585938 Z M 11.484375 -10.484375 "/></g></g></g><g fill="#2b2d42" fill-opacity="1"><g transform="translate(190.673593, 185.099056)"><g><path d="M 0.355469 -16.699219 C 0.175781 -16.5 0.101562 -16.195312 0.125 -15.800781 C 0.152344 -15.410156 0.175781 -15.117188 0.203125 -14.914062 C 0.226562 -14.15625 0.34375 -13.410156 0.542969 -12.699219 C 0.644531 -12.28125 0.746094 -11.914062 0.847656 -11.609375 C 0.949219 -11.292969 1.226562 -11.042969 1.660156 -10.851562 C 2.140625 -10.625 2.683594 -10.496094 3.265625 -10.472656 C 3.847656 -10.445312 4.40625 -10.421875 4.949219 -10.382812 C 5.230469 -10.355469 5.597656 -10.292969 6.050781 -10.21875 C 6.496094 -10.128906 6.785156 -9.925781 6.914062 -9.597656 C 7.140625 -9.015625 7.304688 -8.457031 7.433594 -7.9375 C 7.6875 -6.886719 7.875 -5.824219 8.003906 -4.761719 C 8.128906 -3.683594 8.355469 -2.632812 8.6875 -1.609375 C 8.773438 -1.277344 8.914062 -0.925781 9.089844 -0.53125 C 9.179688 -0.304688 9.355469 -0.152344 9.621094 -0.0898438 C 9.875 -0.0234375 10.117188 0 10.34375 0 C 10.875 0 11.472656 -0.0625 12.128906 -0.191406 C 12.789062 -0.316406 13.332031 -0.53125 13.789062 -0.859375 C 14.09375 -1.089844 14.257812 -1.457031 14.28125 -1.960938 C 14.308594 -2.898438 14.230469 -3.886719 14.078125 -4.9375 C 13.929688 -5.976562 13.800781 -6.976562 13.699219 -7.925781 C 13.648438 -8.382812 13.5625 -8.9375 13.445312 -9.609375 C 13.320312 -10.28125 13.410156 -10.800781 13.6875 -11.167969 C 13.953125 -11.523438 14.320312 -11.789062 14.800781 -11.992188 C 15.269531 -12.179688 15.699219 -12.359375 16.105469 -12.535156 C 16.398438 -12.660156 16.726562 -12.8125 17.105469 -12.992188 C 17.472656 -13.167969 17.738281 -13.410156 17.890625 -13.726562 C 18.117188 -14.230469 18.144531 -15.03125 17.980469 -16.105469 C 17.800781 -17.167969 17.5625 -17.953125 17.234375 -18.433594 C 16.941406 -18.839844 16.5 -19.019531 15.914062 -18.941406 C 15.398438 -18.867188 14.890625 -18.738281 14.382812 -18.5625 C 13.878906 -18.386719 13.382812 -18.246094 12.878906 -18.144531 C 11.332031 -17.828125 9.789062 -17.523438 8.242188 -17.234375 C 6.683594 -16.929688 5.128906 -16.789062 3.558594 -16.789062 C 2.796875 -16.789062 2.078125 -16.828125 1.394531 -16.917969 C 0.886719 -16.980469 0.53125 -16.902344 0.355469 -16.699219 Z M 0.355469 -16.699219 "/></g></g></g><g fill="#2b2d42" fill-opacity="1"><g transform="translate(212.643842, 185.099056)"><g><path d="M 0.570312 -10.953125 C 0.417969 -9.738281 0.34375 -8.382812 0.328125 -6.886719 C 0.316406 -5.394531 0.644531 -4.089844 1.304688 -2.988281 C 1.910156 -1.925781 2.796875 -1.164062 3.964844 -0.710938 C 5.128906 -0.253906 6.292969 -0.0507812 7.457031 -0.125 C 8.964844 -0.203125 10.332031 -0.695312 11.546875 -1.582031 C 12.851562 -2.519531 13.863281 -3.761719 14.585938 -5.28125 C 15.296875 -6.800781 15.828125 -8.332031 16.167969 -9.875 C 16.398438 -10.941406 16.597656 -12.433594 16.800781 -14.347656 C 17.003906 -16.246094 16.890625 -17.714844 16.472656 -18.738281 C 16.320312 -19.09375 16.082031 -19.296875 15.75 -19.347656 C 15.167969 -19.4375 14.460938 -19.335938 13.636719 -19.03125 C 12.800781 -18.726562 12.230469 -18.410156 11.902344 -18.082031 C 11.75 -17.953125 11.648438 -17.800781 11.597656 -17.636719 C 11.484375 -17.382812 11.445312 -17.105469 11.472656 -16.816406 C 11.496094 -16.523438 11.523438 -16.257812 11.558594 -16.003906 C 11.675781 -15.042969 11.675781 -14.027344 11.558594 -12.953125 C 11.445312 -11.863281 11.257812 -10.863281 11.003906 -9.925781 C 10.824219 -9.292969 10.609375 -8.761719 10.355469 -8.304688 C 9.988281 -7.671875 9.34375 -7.101562 8.40625 -6.621094 C 7.46875 -6.140625 6.886719 -6.507812 6.660156 -7.75 C 6.457031 -8.738281 6.496094 -9.8125 6.773438 -10.953125 C 7.050781 -12.09375 7.34375 -13.128906 7.671875 -14.066406 C 7.75 -14.320312 7.875 -14.75 8.078125 -15.371094 C 8.28125 -15.980469 8.304688 -16.398438 8.167969 -16.597656 C 7.734375 -17.132812 6.9375 -17.511719 5.773438 -17.714844 C 4.609375 -17.917969 3.710938 -17.992188 3.078125 -17.96875 C 2.644531 -17.941406 2.292969 -17.625 2 -17.03125 C 1.695312 -16.421875 1.457031 -15.738281 1.253906 -14.953125 C 1.050781 -14.167969 0.898438 -13.394531 0.785156 -12.636719 C 0.671875 -11.863281 0.59375 -11.308594 0.570312 -10.953125 Z M 0.570312 -10.953125 "/></g></g></g><g fill="#2b2d42" fill-opacity="1"><g transform="translate(233.423957, 185.099056)"><g><path d="M 1.445312 -18.269531 C 0.808594 -16.21875 0.417969 -13.585938 0.265625 -10.371094 C 0.113281 -7.152344 0.0742188 -4.40625 0.164062 -2.113281 C 0.164062 -1.785156 0.253906 -1.507812 0.40625 -1.277344 C 0.558594 -1.050781 0.875 -0.910156 1.355469 -0.859375 C 2.875 -0.660156 4.394531 -0.480469 5.9375 -0.328125 C 7.46875 -0.175781 8.964844 -0.226562 10.433594 -0.46875 C 11.597656 -0.644531 12.660156 -1 13.636719 -1.507812 C 14.597656 -1.988281 15.460938 -2.660156 16.230469 -3.496094 C 16.890625 -4.214844 17.511719 -5.128906 18.066406 -6.21875 C 18.625 -7.304688 18.828125 -8.421875 18.664062 -9.546875 C 18.410156 -11.117188 17.800781 -12.574219 16.867188 -13.902344 C 15.765625 -15.421875 14.296875 -16.675781 12.445312 -17.664062 C 10.800781 -18.523438 9.167969 -19.03125 7.519531 -19.195312 C 5.875 -19.347656 4.230469 -19.386719 2.582031 -19.308594 C 2.027344 -19.257812 1.644531 -18.917969 1.445312 -18.269531 Z M 13.042969 -9.621094 C 13.054688 -9.054688 12.953125 -8.496094 12.726562 -7.964844 C 12.445312 -7.320312 11.914062 -6.875 11.105469 -6.648438 C 10.292969 -6.417969 9.546875 -6.292969 8.863281 -6.265625 C 8.332031 -6.242188 7.800781 -6.28125 7.253906 -6.394531 C 6.699219 -6.507812 6.191406 -6.683594 5.75 -6.914062 C 5.699219 -6.9375 5.660156 -7 5.632812 -7.078125 C 5.582031 -7.179688 5.558594 -7.507812 5.582031 -8.089844 C 5.597656 -8.660156 5.632812 -9.28125 5.699219 -9.941406 C 5.761719 -10.597656 5.835938 -11.21875 5.925781 -11.777344 C 6.015625 -12.332031 6.101562 -12.648438 6.203125 -12.738281 C 6.40625 -12.914062 6.648438 -13.015625 6.953125 -13.042969 C 7.203125 -13.042969 7.46875 -13.027344 7.761719 -12.992188 C 8.839844 -12.851562 9.890625 -12.535156 10.914062 -12.027344 C 11.269531 -11.824219 11.585938 -11.636719 11.863281 -11.445312 C 12.597656 -10.875 12.992188 -10.269531 13.042969 -9.621094 Z M 13.042969 -9.621094 "/></g></g></g><g fill="#2b2d42" fill-opacity="1"><g transform="translate(256.10322, 185.099056)"><g><path d="M 0.0117188 -3.8125 C 0 -3.683594 0 -3.519531 0.0234375 -3.304688 C 0.0234375 -3.113281 0.0625 -2.960938 0.113281 -2.847656 C 0.113281 -2.773438 0.140625 -2.660156 0.191406 -2.507812 C 0.214844 -2.355469 0.253906 -2.191406 0.304688 -2.011719 C 0.355469 -1.8125 0.40625 -1.644531 0.457031 -1.53125 C 0.507812 -1.378906 0.558594 -1.277344 0.621094 -1.242188 C 0.808594 -1.0625 0.898438 -0.988281 0.898438 -1 C 1.027344 -0.898438 1.140625 -0.824219 1.214844 -0.773438 C 1.367188 -0.671875 1.480469 -0.609375 1.542969 -0.582031 C 1.609375 -0.542969 1.722656 -0.507812 1.875 -0.457031 C 2.328125 -0.355469 2.886719 -0.265625 3.53125 -0.203125 C 4.367188 -0.0898438 5.164062 -0.0234375 5.898438 -0.0117188 C 6.304688 0 6.699219 0 7.089844 0 C 7.484375 0 7.851562 -0.0390625 8.179688 -0.0898438 C 8.886719 -0.191406 9.355469 -0.367188 9.574219 -0.621094 C 9.6875 -0.757812 9.8125 -1.027344 9.941406 -1.417969 C 10.066406 -1.796875 10.140625 -2.203125 10.167969 -2.621094 C 10.191406 -3.078125 10.15625 -3.457031 10.054688 -3.761719 C 9.902344 -4.101562 9.671875 -4.316406 9.371094 -4.394531 C 9.320312 -4.394531 9.253906 -4.394531 9.191406 -4.40625 C 9.128906 -4.417969 9.066406 -4.429688 8.988281 -4.445312 C 8.761719 -4.46875 8.585938 -4.480469 8.433594 -4.507812 C 8.332031 -4.507812 8.21875 -4.507812 8.101562 -4.519531 C 7.988281 -4.53125 7.875 -4.546875 7.761719 -4.558594 C 7.585938 -4.570312 7.332031 -4.582031 6.976562 -4.609375 C 6.886719 -5.355469 6.835938 -6.203125 6.8125 -7.140625 C 6.773438 -8.003906 6.773438 -8.875 6.8125 -9.789062 C 6.851562 -10.8125 6.914062 -11.699219 6.988281 -12.460938 C 7.039062 -13.230469 7.152344 -14.105469 7.304688 -15.082031 C 7.8125 -15.054688 8.167969 -15.054688 8.382812 -15.054688 C 8.761719 -15.042969 9.15625 -15.066406 9.546875 -15.117188 C 9.941406 -15.167969 10.15625 -15.472656 10.179688 -16.03125 C 10.179688 -16.207031 10.179688 -16.382812 10.167969 -16.535156 C 10.140625 -16.6875 10.117188 -16.839844 10.089844 -17.003906 C 10.066406 -17.042969 10.039062 -17.15625 10.015625 -17.332031 C 9.941406 -17.613281 9.890625 -17.777344 9.890625 -17.828125 C 9.839844 -17.980469 9.800781 -18.132812 9.75 -18.308594 C 9.699219 -18.433594 9.636719 -18.523438 9.585938 -18.601562 C 9.433594 -18.714844 9.34375 -18.789062 9.292969 -18.839844 L 8.988281 -19.070312 C 8.851562 -19.144531 8.738281 -19.207031 8.660156 -19.257812 C 8.507812 -19.320312 8.394531 -19.359375 8.320312 -19.386719 C 7.886719 -19.460938 7.34375 -19.550781 6.660156 -19.652344 C 5.914062 -19.726562 5.128906 -19.789062 4.304688 -19.828125 C 3.445312 -19.855469 2.683594 -19.828125 2.027344 -19.753906 C 1.316406 -19.652344 0.847656 -19.472656 0.632812 -19.21875 C 0.480469 -19.042969 0.367188 -18.777344 0.265625 -18.421875 C 0.140625 -18.042969 0.0507812 -17.636719 0.0234375 -17.21875 C 0 -16.738281 0.0390625 -16.359375 0.152344 -16.082031 C 0.277344 -15.726562 0.492188 -15.511719 0.824219 -15.460938 C 0.949219 -15.421875 1.039062 -15.410156 1.0625 -15.410156 C 1.191406 -15.382812 1.304688 -15.371094 1.378906 -15.371094 C 1.542969 -15.347656 1.671875 -15.332031 1.773438 -15.332031 C 1.859375 -15.320312 2.011719 -15.308594 2.214844 -15.296875 C 2.089844 -14.613281 1.960938 -13.777344 1.859375 -12.789062 C 1.761719 -11.902344 1.683594 -10.976562 1.632812 -10.015625 C 1.570312 -8.914062 1.542969 -7.988281 1.542969 -7.253906 C 1.542969 -6.34375 1.570312 -5.519531 1.621094 -4.785156 L 1.027344 -4.785156 C 0.367188 -4.785156 0.0234375 -4.457031 0.0117188 -3.8125 Z M 0.0117188 -3.8125 "/></g></g></g><g fill="#2b2d42" fill-opacity="1"><g transform="translate(269.64123, 185.099056)"><g><path d="M 11.191406 -4.761719 C 11.546875 -3.582031 11.851562 -2.53125 12.078125 -1.59375 C 12.230469 -0.886719 12.496094 -0.492188 12.902344 -0.390625 C 13.292969 -0.292969 13.777344 -0.328125 14.332031 -0.480469 C 14.714844 -0.582031 15.117188 -0.734375 15.574219 -0.949219 C 16.015625 -1.152344 16.382812 -1.40625 16.6875 -1.695312 C 16.917969 -1.898438 17.082031 -2.214844 17.15625 -2.644531 C 17.21875 -3.152344 17.207031 -3.773438 17.105469 -4.519531 C 17.003906 -5.253906 16.726562 -6.382812 16.269531 -7.875 C 15.816406 -9.371094 15.28125 -10.890625 14.648438 -12.460938 C 14.015625 -14.027344 13.320312 -15.460938 12.574219 -16.765625 C 11.824219 -18.054688 11.105469 -18.890625 10.421875 -19.269531 C 10.015625 -19.601562 9.421875 -19.828125 8.636719 -19.953125 C 7.835938 -20.082031 7.203125 -20.09375 6.722656 -19.992188 C 6.242188 -19.890625 5.824219 -19.636719 5.46875 -19.246094 C 5.117188 -18.851562 4.8125 -18.460938 4.570312 -18.082031 C 4.078125 -17.320312 3.570312 -16.308594 3.050781 -15.066406 C 2.53125 -13.8125 2.050781 -12.511719 1.621094 -11.15625 C 1.191406 -9.789062 0.824219 -8.46875 0.53125 -7.179688 C 0.226562 -5.886719 0.0625 -4.824219 0.0234375 -3.988281 C 0 -3.683594 0 -3.367188 0.0117188 -3.039062 C 0.0234375 -2.710938 0.0742188 -2.40625 0.152344 -2.113281 C 0.242188 -1.722656 0.417969 -1.417969 0.683594 -1.203125 C 0.988281 -0.949219 1.378906 -0.734375 1.847656 -0.558594 C 2.316406 -0.378906 2.746094 -0.265625 3.140625 -0.203125 C 3.695312 -0.101562 4.179688 -0.113281 4.558594 -0.242188 C 4.9375 -0.367188 5.191406 -0.785156 5.304688 -1.507812 C 5.40625 -2.242188 5.546875 -3.078125 5.75 -4 C 6.507812 -3.949219 7.445312 -4.015625 8.558594 -4.179688 C 9.671875 -4.332031 10.558594 -4.53125 11.191406 -4.761719 Z M 6.355469 -6.46875 C 6.886719 -8.394531 7.496094 -10.179688 8.203125 -11.824219 C 9.015625 -10.28125 9.75 -8.648438 10.40625 -6.953125 C 8.988281 -6.609375 7.648438 -6.445312 6.355469 -6.46875 Z M 6.355469 -6.46875 "/></g></g></g><g fill="#2b2d42" fill-opacity="1"><g transform="translate(290.585944, 185.099056)"><g><path d="M 6.75 -18.878906 C 6.570312 -18.992188 6.265625 -19.121094 5.835938 -19.246094 C 5.484375 -19.320312 5.078125 -19.371094 4.648438 -19.410156 C 4.203125 -19.449219 3.8125 -19.421875 3.46875 -19.335938 C 3.164062 -19.257812 2.914062 -19.082031 2.683594 -18.800781 C 2.378906 -18.421875 2.113281 -17.929688 1.898438 -17.320312 C 1.621094 -16.613281 1.355469 -15.6875 1.113281 -14.535156 C 0.875 -13.371094 0.671875 -12.167969 0.519531 -10.902344 C 0.367188 -9.636719 0.265625 -8.394531 0.214844 -7.191406 C 0.164062 -5.988281 0.203125 -4.988281 0.328125 -4.203125 C 0.378906 -3.796875 0.46875 -3.367188 0.609375 -2.914062 C 0.746094 -2.457031 1 -2.101562 1.355469 -1.847656 C 1.746094 -1.542969 2.59375 -1.277344 3.914062 -1.0625 C 5.214844 -0.847656 5.914062 -1.152344 6.015625 -1.960938 C 6.027344 -2.179688 6.015625 -2.40625 5.964844 -2.632812 C 5.914062 -2.863281 5.886719 -3.089844 5.863281 -3.316406 C 5.621094 -4.785156 5.53125 -6.394531 5.609375 -8.152344 C 5.683594 -9.914062 5.863281 -11.648438 6.167969 -13.359375 C 7.332031 -11.636719 8.34375 -9.964844 9.21875 -8.34375 C 10.089844 -6.722656 10.890625 -4.925781 11.597656 -2.925781 C 11.648438 -2.519531 11.75 -2.113281 11.902344 -1.710938 C 12.042969 -1.292969 12.28125 -0.960938 12.609375 -0.722656 C 12.800781 -0.570312 13.144531 -0.417969 13.636719 -0.265625 C 14.128906 -0.113281 14.636719 -0.0117188 15.15625 0.0390625 C 15.675781 0.0898438 16.144531 0.0507812 16.5625 -0.0625 C 16.980469 -0.175781 17.207031 -0.441406 17.257812 -0.847656 C 17.269531 -1.050781 17.257812 -1.277344 17.21875 -1.507812 C 17.167969 -1.734375 17.132812 -1.960938 17.105469 -2.191406 C 16.777344 -4.265625 16.738281 -6.597656 17.003906 -9.191406 C 17.269531 -11.777344 17.714844 -14.128906 18.347656 -16.257812 C 18.523438 -16.867188 18.472656 -17.296875 18.21875 -17.550781 C 17.953125 -17.800781 17.574219 -17.992188 17.082031 -18.117188 C 16.726562 -18.195312 16.332031 -18.246094 15.890625 -18.285156 C 15.449219 -18.320312 15.054688 -18.296875 14.714844 -18.21875 C 14.421875 -18.132812 14.167969 -17.953125 13.941406 -17.675781 C 13.648438 -17.308594 13.382812 -16.816406 13.144531 -16.207031 C 12.941406 -15.714844 12.75 -15.105469 12.574219 -14.382812 C 12.394531 -13.660156 12.242188 -12.890625 12.105469 -12.054688 C 10.925781 -13.929688 9.75 -15.597656 8.585938 -17.066406 C 8.355469 -17.332031 8.117188 -17.601562 7.875 -17.878906 C 7.621094 -18.144531 7.382812 -18.386719 7.128906 -18.613281 C 7 -18.714844 6.875 -18.800781 6.75 -18.878906 Z M 6.75 -18.878906 "/></g></g></g><g fill="#2b2d42" fill-opacity="1"><g transform="translate(312.948694, 185.099056)"><g><path d="M 0.355469 -16.699219 C 0.175781 -16.5 0.101562 -16.195312 0.125 -15.800781 C 0.152344 -15.410156 0.175781 -15.117188 0.203125 -14.914062 C 0.226562 -14.15625 0.34375 -13.410156 0.542969 -12.699219 C 0.644531 -12.28125 0.746094 -11.914062 0.847656 -11.609375 C 0.949219 -11.292969 1.226562 -11.042969 1.660156 -10.851562 C 2.140625 -10.625 2.683594 -10.496094 3.265625 -10.472656 C 3.847656 -10.445312 4.40625 -10.421875 4.949219 -10.382812 C 5.230469 -10.355469 5.597656 -10.292969 6.050781 -10.21875 C 6.496094 -10.128906 6.785156 -9.925781 6.914062 -9.597656 C 7.140625 -9.015625 7.304688 -8.457031 7.433594 -7.9375 C 7.6875 -6.886719 7.875 -5.824219 8.003906 -4.761719 C 8.128906 -3.683594 8.355469 -2.632812 8.6875 -1.609375 C 8.773438 -1.277344 8.914062 -0.925781 9.089844 -0.53125 C 9.179688 -0.304688 9.355469 -0.152344 9.621094 -0.0898438 C 9.875 -0.0234375 10.117188 0 10.34375 0 C 10.875 0 11.472656 -0.0625 12.128906 -0.191406 C 12.789062 -0.316406 13.332031 -0.53125 13.789062 -0.859375 C 14.09375 -1.089844 14.257812 -1.457031 14.28125 -1.960938 C 14.308594 -2.898438 14.230469 -3.886719 14.078125 -4.9375 C 13.929688 -5.976562 13.800781 -6.976562 13.699219 -7.925781 C 13.648438 -8.382812 13.5625 -8.9375 13.445312 -9.609375 C 13.320312 -10.28125 13.410156 -10.800781 13.6875 -11.167969 C 13.953125 -11.523438 14.320312 -11.789062 14.800781 -11.992188 C 15.269531 -12.179688 15.699219 -12.359375 16.105469 -12.535156 C 16.398438 -12.660156 16.726562 -12.8125 17.105469 -12.992188 C 17.472656 -13.167969 17.738281 -13.410156 17.890625 -13.726562 C 18.117188 -14.230469 18.144531 -15.03125 17.980469 -16.105469 C 17.800781 -17.167969 17.5625 -17.953125 17.234375 -18.433594 C 16.941406 -18.839844 16.5 -19.019531 15.914062 -18.941406 C 15.398438 -18.867188 14.890625 -18.738281 14.382812 -18.5625 C 13.878906 -18.386719 13.382812 -18.246094 12.878906 -18.144531 C 11.332031 -17.828125 9.789062 -17.523438 8.242188 -17.234375 C 6.683594 -16.929688 5.128906 -16.789062 3.558594 -16.789062 C 2.796875 -16.789062 2.078125 -16.828125 1.394531 -16.917969 C 0.886719 -16.980469 0.53125 -16.902344 0.355469 -16.699219 Z M 0.355469 -16.699219 "/></g></g></g><g fill="#2b2d42" fill-opacity="1"><g transform="translate(334.918945, 185.099056)"><g><path d="M 1.847656 -18.082031 C 1.542969 -17.929688 1.304688 -17.699219 1.125 -17.382812 C 0.898438 -16.980469 0.710938 -16.433594 0.582031 -15.765625 C 0.429688 -15.003906 0.355469 -14.042969 0.355469 -12.851562 C 0.355469 -11.660156 0.40625 -10.433594 0.53125 -9.167969 C 0.644531 -7.902344 0.808594 -6.671875 1.039062 -5.484375 C 1.265625 -4.292969 1.53125 -3.316406 1.835938 -2.570312 C 1.988281 -2.164062 2.191406 -1.761719 2.445312 -1.355469 C 2.695312 -0.949219 3.039062 -0.660156 3.496094 -0.480469 C 4.101562 -0.226562 5 -0.140625 6.203125 -0.214844 C 7.40625 -0.277344 8.382812 -0.34375 9.140625 -0.390625 C 10.382812 -0.441406 11.585938 -0.558594 12.75 -0.710938 C 13.914062 -0.859375 14.878906 -1.050781 15.636719 -1.277344 C 16.144531 -1.429688 16.535156 -1.582031 16.828125 -1.734375 C 17.257812 -1.960938 17.5625 -2.226562 17.738281 -2.53125 C 18.042969 -3.050781 18.144531 -3.824219 18.066406 -4.863281 C 18.019531 -5.316406 17.917969 -5.710938 17.738281 -6.050781 C 17.5625 -6.382812 17.269531 -6.546875 16.878906 -6.519531 C 16.6875 -6.496094 16.472656 -6.457031 16.230469 -6.394531 C 16.117188 -6.355469 16.003906 -6.316406 15.902344 -6.28125 C 15.800781 -6.230469 15.699219 -6.203125 15.597656 -6.179688 C 14.613281 -5.875 13.546875 -5.621094 12.394531 -5.417969 C 11.242188 -5.214844 10.066406 -5.078125 8.875 -4.988281 C 8.558594 -4.964844 8.28125 -4.9375 8.039062 -4.914062 C 7.800781 -4.886719 7.585938 -4.875 7.394531 -4.875 C 7.140625 -5.671875 6.953125 -6.484375 6.800781 -7.292969 C 7.953125 -7.382812 9.105469 -7.535156 10.269531 -7.761719 C 11.421875 -7.976562 12.144531 -8.28125 12.421875 -8.660156 C 12.648438 -8.964844 12.761719 -9.609375 12.761719 -10.597656 C 12.761719 -11.585938 12.382812 -12.078125 11.597656 -12.105469 C 11.207031 -12.105469 10.496094 -12.066406 9.472656 -11.964844 C 8.433594 -11.863281 7.355469 -11.738281 6.242188 -11.609375 C 6.167969 -12.574219 6.128906 -13.597656 6.152344 -14.664062 C 7.46875 -14.890625 8.761719 -15.03125 10.015625 -15.082031 C 11.257812 -15.128906 12.609375 -15.042969 14.066406 -14.8125 C 14.269531 -14.777344 14.484375 -14.738281 14.714844 -14.699219 C 14.941406 -14.648438 15.15625 -14.636719 15.382812 -14.664062 C 16.167969 -14.714844 16.472656 -15.320312 16.308594 -16.472656 C 16.144531 -17.625 15.929688 -18.386719 15.648438 -18.738281 C 15.398438 -19.042969 15.054688 -19.257812 14.625 -19.386719 C 14.195312 -19.511719 13.777344 -19.613281 13.382812 -19.675781 C 11.824219 -19.890625 10.066406 -19.867188 8.117188 -19.585938 C 6.167969 -19.308594 4.496094 -18.941406 3.113281 -18.484375 C 2.898438 -18.410156 2.683594 -18.335938 2.46875 -18.285156 C 2.242188 -18.234375 2.039062 -18.15625 1.847656 -18.082031 Z M 1.847656 -18.082031 "/></g></g></g><path fill="#ea392c" d="M 132.105469 130.3125 C 108.707031 128.085938 84.261719 125.839844 80.253906 140.039062 C 78.828125 139.898438 76.839844 139.882812 74.125 139.90625 C 69.984375 128.132812 56.589844 127.015625 22.5625 130.175781 C 19.734375 130.4375 20.660156 133.941406 22.5625 133.765625 C 22.878906 133.765625 24.523438 133.597656 27.015625 133.375 C 23.949219 156.691406 42.164062 172.132812 58.699219 167.472656 C 70.726562 164.089844 76.207031 152.828125 74.980469 143.519531 C 76.855469 143.554688 78.378906 143.65625 79.585938 143.71875 C 77.683594 162.300781 98.605469 175.40625 114.816406 164.40625 C 125.398438 157.230469 129.296875 145.921875 127.648438 133.503906 C 129.078125 133.625 130.558594 133.753906 132.09375 133.902344 C 134.175781 134.101562 134.761719 130.566406 132.105469 130.3125 Z M 62.523438 161.984375 C 51.53125 168.464844 39.367188 162.9375 33.429688 152.28125 C 28.90625 144.136719 30.375 137.058594 30.71875 133.0625 C 40.640625 132.277344 56.902344 131.46875 64.214844 134.304688 C 75.886719 138.835938 72.644531 156.019531 62.523438 161.984375 Z M 90.132812 160.726562 C 81.597656 153.691406 79.601562 138.929688 90.230469 134.417969 C 89.84375 134.582031 93.910156 130.964844 123.992188 133.210938 C 127.980469 158.640625 103.996094 172.136719 90.144531 160.726562 Z M 90.132812 160.726562 " fill-opacity="1" fill-rule="nonzero"/><path fill="#012b36" d="M 53.492188 137.914062 C 52.542969 137.914062 51.617188 138.054688 50.710938 138.328125 C 50.96875 138.53125 51.199219 138.761719 51.410156 139.011719 C 51.621094 139.261719 51.804688 139.53125 51.957031 139.820312 C 52.113281 140.109375 52.238281 140.410156 52.332031 140.722656 C 52.421875 141.039062 52.484375 141.355469 52.511719 141.683594 C 52.539062 142.007812 52.535156 142.335938 52.496094 142.660156 C 52.457031 142.984375 52.386719 143.300781 52.285156 143.613281 C 52.179688 143.921875 52.046875 144.21875 51.882812 144.503906 C 51.71875 144.785156 51.527344 145.050781 51.3125 145.296875 C 51.09375 145.539062 50.851562 145.761719 50.589844 145.957031 C 50.328125 146.152344 50.046875 146.316406 49.75 146.457031 C 49.453125 146.59375 49.144531 146.703125 48.828125 146.777344 C 48.507812 146.855469 48.183594 146.898438 47.855469 146.90625 C 47.53125 146.917969 47.203125 146.894531 46.882812 146.839844 C 46.558594 146.78125 46.246094 146.695312 45.9375 146.574219 C 45.632812 146.453125 45.34375 146.304688 45.070312 146.125 C 44.796875 145.945312 44.542969 145.742188 44.308594 145.511719 C 44.199219 146.074219 44.140625 146.640625 44.140625 147.210938 C 44.140625 147.820312 44.199219 148.429688 44.316406 149.027344 C 44.4375 149.628906 44.613281 150.210938 44.847656 150.777344 C 45.082031 151.34375 45.367188 151.878906 45.707031 152.386719 C 46.046875 152.898438 46.433594 153.367188 46.867188 153.800781 C 47.300781 154.234375 47.769531 154.621094 48.277344 154.960938 C 48.789062 155.300781 49.324219 155.589844 49.890625 155.824219 C 50.457031 156.058594 51.042969 156.238281 51.640625 156.355469 C 52.242188 156.476562 52.851562 156.539062 53.464844 156.539062 C 54.074219 156.539062 54.683594 156.480469 55.285156 156.363281 C 55.886719 156.242188 56.46875 156.066406 57.035156 155.832031 C 57.601562 155.601562 58.140625 155.3125 58.648438 154.972656 C 59.160156 154.636719 59.632812 154.25 60.066406 153.816406 C 60.5 153.386719 60.886719 152.914062 61.230469 152.40625 C 61.570312 151.898438 61.859375 151.363281 62.09375 150.796875 C 62.328125 150.230469 62.503906 149.648438 62.625 149.050781 C 62.746094 148.449219 62.808594 147.84375 62.808594 147.234375 C 62.808594 146.621094 62.75 146.015625 62.628906 145.414062 C 62.511719 144.816406 62.335938 144.230469 62.101562 143.667969 C 61.867188 143.101562 61.578125 142.5625 61.238281 142.054688 C 60.898438 141.546875 60.511719 141.074219 60.082031 140.640625 C 59.648438 140.207031 59.175781 139.820312 58.667969 139.480469 C 58.160156 139.140625 57.621094 138.855469 57.054688 138.621094 C 56.488281 138.382812 55.90625 138.207031 55.304688 138.085938 C 54.703125 137.96875 54.097656 137.90625 53.484375 137.90625 Z M 54.117188 151.40625 C 53.734375 151.40625 53.367188 151.332031 53.011719 151.183594 C 52.65625 151.039062 52.34375 150.828125 52.070312 150.558594 C 51.800781 150.285156 51.589844 149.972656 51.445312 149.617188 C 51.296875 149.265625 51.222656 148.894531 51.226562 148.511719 C 51.226562 148.128906 51.300781 147.757812 51.445312 147.40625 C 51.59375 147.050781 51.804688 146.738281 52.074219 146.46875 C 52.347656 146.195312 52.660156 145.988281 53.015625 145.84375 C 53.371094 145.695312 53.742188 145.621094 54.125 145.625 C 54.507812 145.625 54.878906 145.699219 55.234375 145.84375 C 55.589844 145.992188 55.902344 146.203125 56.171875 146.472656 C 56.445312 146.746094 56.652344 147.058594 56.800781 147.414062 C 56.945312 147.765625 57.019531 148.136719 57.019531 148.519531 C 57.019531 148.902344 56.945312 149.273438 56.796875 149.625 C 56.648438 149.980469 56.441406 150.292969 56.167969 150.5625 C 55.894531 150.832031 55.582031 151.042969 55.226562 151.1875 C 54.871094 151.335938 54.503906 151.40625 54.117188 151.40625 Z M 54.117188 151.40625 " fill-opacity="1" fill-rule="nonzero"/><path fill="#012b36" d="M 91.84375 147.242188 C 91.855469 147.847656 91.925781 148.445312 92.050781 149.039062 C 92.179688 149.628906 92.363281 150.203125 92.601562 150.757812 C 92.839844 151.316406 93.132812 151.84375 93.476562 152.34375 C 93.816406 152.84375 94.207031 153.304688 94.636719 153.730469 C 95.070312 154.152344 95.539062 154.53125 96.046875 154.863281 C 96.554688 155.199219 97.089844 155.476562 97.648438 155.707031 C 98.210938 155.9375 98.789062 156.109375 99.386719 156.226562 C 99.980469 156.339844 100.582031 156.398438 101.1875 156.398438 C 101.792969 156.398438 102.394531 156.339844 102.992188 156.222656 C 103.585938 156.101562 104.164062 155.929688 104.722656 155.699219 C 105.285156 155.46875 105.820312 155.1875 106.324219 154.851562 C 106.832031 154.519531 107.300781 154.140625 107.730469 153.714844 C 108.164062 153.289062 108.550781 152.828125 108.890625 152.324219 C 109.234375 151.824219 109.523438 151.296875 109.761719 150.738281 C 110 150.183594 110.179688 149.609375 110.308594 149.015625 C 110.433594 148.425781 110.5 147.824219 110.507812 147.21875 C 110.507812 146.644531 110.453125 146.074219 110.34375 145.511719 C 109.898438 145.957031 109.378906 146.300781 108.796875 146.542969 C 108.210938 146.785156 107.601562 146.902344 106.96875 146.902344 C 106.46875 146.902344 105.980469 146.828125 105.503906 146.675781 C 105.027344 146.527344 104.582031 146.304688 104.175781 146.019531 C 103.765625 145.730469 103.414062 145.386719 103.109375 144.988281 C 102.808594 144.589844 102.574219 144.15625 102.410156 143.683594 C 102.246094 143.214844 102.152344 142.730469 102.140625 142.230469 C 102.125 141.730469 102.1875 141.242188 102.324219 140.761719 C 102.460938 140.28125 102.667969 139.835938 102.945312 139.421875 C 103.222656 139.003906 103.554688 138.640625 103.945312 138.328125 C 103.039062 138.054688 102.113281 137.914062 101.164062 137.914062 C 100.550781 137.917969 99.945312 137.976562 99.34375 138.097656 C 98.742188 138.21875 98.160156 138.394531 97.59375 138.628906 C 97.027344 138.863281 96.492188 139.152344 95.980469 139.492188 C 95.472656 139.832031 95.003906 140.21875 94.570312 140.652344 C 94.136719 141.085938 93.75 141.554688 93.410156 142.066406 C 93.070312 142.574219 92.785156 143.109375 92.550781 143.675781 C 92.316406 144.242188 92.140625 144.824219 92.023438 145.425781 C 91.902344 146.023438 91.84375 146.628906 91.84375 147.242188 Z M 97.640625 148.519531 C 97.636719 148.136719 97.710938 147.765625 97.859375 147.414062 C 98.003906 147.058594 98.214844 146.746094 98.484375 146.472656 C 98.753906 146.203125 99.070312 145.992188 99.421875 145.84375 C 99.777344 145.699219 100.148438 145.625 100.53125 145.625 C 100.917969 145.621094 101.285156 145.695312 101.640625 145.84375 C 101.996094 145.988281 102.308594 146.195312 102.582031 146.46875 C 102.855469 146.738281 103.0625 147.050781 103.210938 147.40625 C 103.359375 147.757812 103.433594 148.128906 103.433594 148.511719 C 103.433594 148.894531 103.359375 149.265625 103.214844 149.617188 C 103.066406 149.972656 102.859375 150.285156 102.585938 150.558594 C 102.316406 150.828125 102 151.039062 101.648438 151.183594 C 101.292969 151.332031 100.921875 151.40625 100.539062 151.40625 C 100.152344 151.40625 99.785156 151.335938 99.429688 151.1875 C 99.074219 151.042969 98.761719 150.835938 98.488281 150.5625 C 98.214844 150.292969 98.007812 149.980469 97.859375 149.625 C 97.710938 149.273438 97.640625 148.902344 97.640625 148.519531 Z M 97.640625 148.519531 " fill-opacity="1" fill-rule="nonzero"/><g clip-path="url(#16e7856216)"><path fill="#012b36" d="M 71 129.867188 C 66.445312 126.871094 61.425781 125.980469 56.425781 125.828125 C 51.425781 125.671875 46.371094 126.488281 41.03125 126.996094 C 39.695312 127.113281 38.347656 127.234375 36.984375 127.300781 C 35.625 127.371094 34.234375 127.394531 32.84375 127.359375 C 31.433594 127.320312 30.027344 127.207031 28.625 127.019531 C 27.210938 126.816406 25.816406 126.515625 24.445312 126.121094 C 23.070312 125.710938 21.738281 125.195312 20.449219 124.578125 C 19.160156 123.949219 17.945312 123.199219 16.800781 122.335938 C 15.671875 121.46875 14.664062 120.476562 13.78125 119.363281 C 12.929688 118.257812 12.257812 117.054688 11.769531 115.75 C 12.714844 116.671875 13.734375 117.503906 14.828125 118.25 C 15.902344 118.925781 17.023438 119.515625 18.195312 120.011719 C 20.503906 120.953125 22.898438 121.574219 25.375 121.886719 C 30.261719 122.558594 35.269531 122 40.515625 121.511719 L 44.492188 121.164062 C 45.835938 121.082031 47.191406 120.984375 48.5625 120.957031 C 51.363281 120.859375 54.144531 121.054688 56.90625 121.535156 C 58.296875 121.792969 59.667969 122.144531 61.011719 122.589844 C 62.355469 123.042969 63.652344 123.609375 64.898438 124.285156 C 66.136719 124.972656 67.285156 125.78125 68.34375 126.71875 C 69.371094 127.648438 70.257812 128.695312 71 129.867188 Z M 71 129.867188 " fill-opacity="1" fill-rule="nonzero"/></g><path fill="#012b36" d="M 69.15625 126.066406 C 67.355469 125.308594 65.519531 124.65625 63.644531 124.101562 C 61.871094 123.589844 60.066406 123.21875 58.238281 122.976562 C 56.46875 122.75 54.695312 122.671875 52.914062 122.738281 C 52.035156 122.785156 51.171875 122.828125 50.28125 122.953125 C 49.386719 123.082031 48.480469 123.191406 47.554688 123.34375 L 44.699219 123.800781 C 43.726562 123.933594 42.738281 124.089844 41.71875 124.1875 C 40.695312 124.285156 39.65625 124.363281 38.59375 124.355469 C 37.507812 124.367188 36.425781 124.289062 35.351562 124.117188 C 33.15625 123.789062 31.125 123.027344 29.257812 121.832031 C 27.4375 120.628906 25.945312 118.847656 25.425781 116.859375 C 26.875 118.105469 28.53125 118.941406 30.394531 119.367188 C 32.121094 119.757812 33.863281 119.898438 35.632812 119.785156 C 39.074219 119.609375 42.671875 118.535156 46.671875 117.902344 C 48.675781 117.601562 50.808594 117.375 52.980469 117.523438 C 55.132812 117.65625 57.222656 118.074219 59.257812 118.785156 C 63.261719 120.1875 66.863281 122.675781 69.15625 126.066406 Z M 69.15625 126.066406 " fill-opacity="1" fill-rule="nonzero"/><g clip-path="url(#56c7ae9b0e)"><path fill="#012b36" d="M 83.65625 129.867188 C 88.207031 126.871094 93.226562 125.980469 98.222656 125.828125 C 103.222656 125.671875 108.277344 126.488281 113.621094 126.996094 C 114.957031 127.113281 116.304688 127.234375 117.667969 127.300781 C 119.027344 127.371094 120.417969 127.394531 121.8125 127.359375 C 123.222656 127.320312 124.625 127.210938 126.023438 127.027344 C 127.441406 126.824219 128.832031 126.523438 130.207031 126.125 C 131.582031 125.71875 132.914062 125.203125 134.203125 124.585938 C 135.492188 123.953125 136.707031 123.207031 137.851562 122.34375 C 138.976562 121.472656 139.984375 120.480469 140.867188 119.363281 C 141.71875 118.257812 142.390625 117.054688 142.878906 115.75 C 141.9375 116.671875 140.917969 117.503906 139.832031 118.25 C 138.761719 118.925781 137.640625 119.515625 136.472656 120.011719 C 134.164062 120.953125 131.769531 121.574219 129.296875 121.886719 C 124.410156 122.558594 119.398438 122 114.15625 121.511719 L 110.179688 121.164062 C 108.835938 121.082031 107.480469 120.984375 106.109375 120.957031 C 103.308594 120.859375 100.523438 121.054688 97.761719 121.535156 C 96.367188 121.792969 95 122.144531 93.652344 122.589844 C 92.308594 123.042969 91.011719 123.609375 89.761719 124.285156 C 88.527344 124.972656 87.378906 125.785156 86.316406 126.71875 C 85.289062 127.648438 84.398438 128.695312 83.65625 129.867188 Z M 83.65625 129.867188 " fill-opacity="1" fill-rule="nonzero"/></g><path fill="#012b36" d="M 85.5 126.066406 C 87.300781 125.308594 89.140625 124.65625 91.011719 124.101562 C 92.785156 123.589844 94.589844 123.21875 96.417969 122.976562 C 98.1875 122.75 99.960938 122.671875 101.746094 122.738281 C 102.621094 122.785156 103.488281 122.828125 104.378906 122.953125 C 105.273438 123.082031 106.179688 123.191406 107.101562 123.34375 L 109.949219 123.800781 C 110.921875 123.933594 111.910156 124.089844 112.933594 124.1875 C 113.953125 124.285156 114.992188 124.363281 116.054688 124.355469 C 117.144531 124.367188 118.222656 124.289062 119.296875 124.117188 C 121.492188 123.792969 123.527344 123.03125 125.394531 121.832031 C 127.210938 120.628906 128.703125 118.847656 129.222656 116.859375 C 127.773438 118.105469 126.121094 118.941406 124.257812 119.367188 C 122.53125 119.757812 120.785156 119.898438 119.019531 119.785156 C 115.578125 119.609375 111.976562 118.535156 107.980469 117.902344 C 105.976562 117.601562 103.84375 117.375 101.671875 117.523438 C 99.519531 117.65625 97.429688 118.074219 95.394531 118.785156 C 91.394531 120.1875 87.792969 122.675781 85.5 126.066406 Z M 85.5 126.066406 " fill-opacity="1" fill-rule="nonzero"/><path fill="#006078" d="M 77.28125 128.285156 C 77.296875 128.257812 77.3125 128.234375 77.332031 128.214844 C 77.347656 128.238281 77.359375 128.261719 77.371094 128.285156 Z M 77.28125 128.285156 " fill-opacity="1" fill-rule="nonzero"/><path fill="#006078" d="M 112.238281 92.40625 L 112.238281 113.925781 C 105.464844 113.566406 98.652344 113.578125 92.191406 115.5 C 86.238281 117.265625 80.570312 120.996094 77.335938 126.144531 C 74.09375 120.996094 68.421875 117.273438 62.46875 115.5 C 56.003906 113.578125 49.1875 113.566406 42.414062 113.925781 L 42.414062 92.40625 Z M 112.238281 92.40625 " fill-opacity="1" fill-rule="nonzero"/><path fill="#012b36" d="M 45.449219 179.851562 C 51.738281 188.433594 53.515625 199.738281 52.023438 210.265625 C 51.089844 216.832031 48.996094 223.152344 46.265625 229.21875 C 44.585938 228.304688 42.953125 227.308594 41.375 226.234375 C 39.792969 225.15625 38.269531 224.003906 36.804688 222.777344 C 35.339844 221.550781 33.9375 220.253906 32.601562 218.890625 C 31.265625 217.523438 30 216.097656 28.804688 214.605469 C 27.609375 213.113281 26.492188 211.566406 25.449219 209.964844 C 24.410156 208.363281 23.449219 206.710938 22.574219 205.015625 C 21.699219 203.320312 20.90625 201.582031 20.203125 199.808594 C 19.5 198.03125 18.886719 196.226562 18.363281 194.390625 C 17.839844 192.550781 17.40625 190.695312 17.066406 188.816406 C 16.730469 186.9375 16.484375 185.046875 16.332031 183.140625 C 16.183594 181.238281 16.125 179.332031 16.164062 177.421875 C 16.203125 175.515625 16.339844 173.613281 16.566406 171.714844 C 16.792969 169.820312 17.117188 167.941406 17.53125 166.078125 C 17.945312 164.214844 18.453125 162.375 19.050781 160.5625 C 19.652344 158.746094 20.335938 156.96875 21.113281 155.222656 C 21.886719 153.476562 22.75 151.773438 23.695312 150.113281 C 24.003906 155.855469 27.425781 161.226562 31.433594 165.503906 C 36.011719 170.390625 41.5 174.457031 45.449219 179.851562 Z M 45.449219 179.851562 " fill-opacity="1" fill-rule="nonzero"/><path fill="#012b36" d="M 138.503906 178.734375 C 138.507812 181.324219 138.339844 183.902344 137.996094 186.46875 C 137.648438 189.03125 137.132812 191.5625 136.445312 194.058594 C 135.753906 196.558594 134.902344 198.996094 133.882812 201.375 C 132.863281 203.757812 131.6875 206.058594 130.355469 208.28125 C 129.023438 210.5 127.546875 212.625 125.925781 214.644531 C 124.308594 216.667969 122.558594 218.574219 120.679688 220.359375 C 118.800781 222.144531 116.8125 223.796875 114.710938 225.3125 C 112.609375 226.828125 110.414062 228.195312 108.125 229.417969 C 105.34375 223.296875 103.207031 216.90625 102.269531 210.269531 C 100.785156 199.738281 102.550781 188.4375 108.84375 179.859375 C 112.796875 174.460938 118.285156 170.398438 122.855469 165.519531 C 126.996094 161.097656 130.519531 155.488281 130.628906 149.535156 L 130.921875 150.039062 C 133.417969 154.410156 135.308594 159.027344 136.59375 163.890625 C 137.878906 168.753906 138.515625 173.703125 138.503906 178.734375 Z M 138.503906 178.734375 " fill-opacity="1" fill-rule="nonzero"/><path fill="#012b36" d="M 82.464844 161.652344 C 82.28125 163.914062 78.917969 168.730469 77.339844 168.992188 C 75.761719 168.730469 72.398438 163.914062 72.21875 161.652344 C 72.398438 159.394531 75.761719 154.574219 77.339844 154.3125 C 78.90625 154.574219 82.269531 159.394531 82.464844 161.652344 Z M 82.464844 161.652344 " fill-opacity="1" fill-rule="nonzero"/><g clip-path="url(#29122b6918)"><path fill="#012b36" d="M 77.328125 79.023438 L 12.347656 93.304688 L 77.328125 107.585938 L 142.304688 93.304688 Z M 77.328125 79.023438 " fill-opacity="1" fill-rule="nonzero"/></g><g clip-path="url(#8ce562cc21)"><path fill="#006078" d="M 70.414062 224.882812 C 70.042969 224.882812 69.6875 224.949219 69.339844 225.078125 C 68.992188 225.207031 68.679688 225.394531 68.398438 225.636719 C 68.117188 225.875 67.886719 226.160156 67.707031 226.484375 C 67.527344 226.804688 67.410156 227.152344 67.355469 227.515625 C 67.03125 227.289062 66.679688 227.128906 66.292969 227.035156 C 65.910156 226.945312 65.523438 226.925781 65.132812 226.984375 C 64.742188 227.039062 64.375 227.167969 64.035156 227.367188 C 63.691406 227.566406 63.398438 227.820312 63.15625 228.132812 L 63.15625 227.992188 C 63.15625 227.578125 63.078125 227.183594 62.921875 226.804688 C 62.761719 226.421875 62.539062 226.085938 62.246094 225.796875 C 61.953125 225.503906 61.617188 225.28125 61.238281 225.121094 C 60.855469 224.964844 60.457031 224.886719 60.046875 224.886719 C 59.632812 224.886719 59.238281 224.964844 58.855469 225.121094 C 58.472656 225.28125 58.136719 225.503906 57.847656 225.796875 C 57.554688 226.085938 57.328125 226.421875 57.171875 226.804688 C 57.015625 227.183594 56.933594 227.578125 56.933594 227.992188 L 56.933594 236.273438 C 56.933594 236.59375 56.980469 236.910156 57.078125 237.214844 C 57.171875 237.523438 57.3125 237.808594 57.5 238.074219 C 57.6875 238.335938 57.910156 238.566406 58.167969 238.757812 C 58.425781 238.953125 58.707031 239.105469 59.011719 239.210938 C 59.316406 239.316406 59.628906 239.371094 59.953125 239.382812 C 60.277344 239.390625 60.59375 239.347656 60.902344 239.257812 C 61.210938 239.164062 61.5 239.03125 61.769531 238.847656 C 62.035156 238.667969 62.269531 238.449219 62.46875 238.195312 L 62.46875 238.339844 C 62.433594 238.75 62.484375 239.148438 62.609375 239.539062 C 62.738281 239.925781 62.933594 240.277344 63.203125 240.589844 C 63.46875 240.898438 63.785156 241.148438 64.152344 241.332031 C 64.519531 241.519531 64.90625 241.628906 65.316406 241.660156 C 65.722656 241.691406 66.125 241.640625 66.515625 241.515625 C 66.90625 241.386719 67.253906 241.191406 67.566406 240.925781 C 67.878906 240.65625 68.128906 240.34375 68.3125 239.976562 C 68.5 239.613281 68.609375 239.222656 68.640625 238.816406 C 69.171875 239.191406 69.761719 239.378906 70.414062 239.382812 C 70.828125 239.378906 71.222656 239.300781 71.605469 239.144531 C 71.984375 238.984375 72.320312 238.761719 72.613281 238.46875 C 72.902344 238.179688 73.128906 237.84375 73.285156 237.464844 C 73.445312 237.082031 73.523438 236.6875 73.527344 236.277344 L 73.527344 227.992188 C 73.527344 227.578125 73.445312 227.183594 73.289062 226.804688 C 73.128906 226.421875 72.90625 226.085938 72.613281 225.792969 C 72.324219 225.503906 71.988281 225.277344 71.605469 225.121094 C 71.222656 224.960938 70.828125 224.882812 70.414062 224.882812 Z M 70.414062 224.882812 " fill-opacity="1" fill-rule="nonzero"/></g><g clip-path="url(#b37e35d961)"><path fill="#006078" d="M 84.238281 224.882812 C 84.609375 224.882812 84.96875 224.949219 85.316406 225.078125 C 85.664062 225.207031 85.976562 225.394531 86.257812 225.636719 C 86.539062 225.875 86.769531 226.160156 86.949219 226.484375 C 87.128906 226.804688 87.246094 227.152344 87.304688 227.515625 C 87.625 227.285156 87.980469 227.125 88.363281 227.03125 C 88.75 226.941406 89.136719 226.921875 89.53125 226.980469 C 89.921875 227.035156 90.289062 227.164062 90.632812 227.363281 C 90.972656 227.5625 91.265625 227.820312 91.507812 228.132812 L 91.507812 227.992188 C 91.519531 227.585938 91.609375 227.199219 91.769531 226.828125 C 91.933594 226.460938 92.160156 226.132812 92.449219 225.851562 C 92.742188 225.570312 93.074219 225.351562 93.449219 225.199219 C 93.824219 225.046875 94.214844 224.972656 94.621094 224.972656 C 95.023438 224.972656 95.414062 225.046875 95.789062 225.199219 C 96.164062 225.351562 96.5 225.570312 96.789062 225.851562 C 97.078125 226.132812 97.304688 226.460938 97.46875 226.828125 C 97.632812 227.199219 97.71875 227.585938 97.730469 227.992188 L 97.730469 236.273438 C 97.730469 236.59375 97.683594 236.910156 97.585938 237.214844 C 97.492188 237.523438 97.347656 237.808594 97.164062 238.070312 C 96.976562 238.335938 96.753906 238.5625 96.496094 238.757812 C 96.238281 238.949219 95.957031 239.101562 95.652344 239.207031 C 95.347656 239.3125 95.035156 239.371094 94.714844 239.378906 C 94.390625 239.386719 94.074219 239.34375 93.765625 239.253906 C 93.453125 239.164062 93.167969 239.027344 92.898438 238.847656 C 92.632812 238.667969 92.398438 238.449219 92.199219 238.195312 L 92.199219 238.339844 C 92.230469 238.75 92.183594 239.148438 92.054688 239.539062 C 91.929688 239.925781 91.730469 240.277344 91.464844 240.589844 C 91.195312 240.898438 90.878906 241.148438 90.511719 241.332031 C 90.148438 241.519531 89.757812 241.628906 89.351562 241.660156 C 88.941406 241.691406 88.542969 241.640625 88.152344 241.515625 C 87.761719 241.386719 87.410156 241.191406 87.097656 240.925781 C 86.785156 240.65625 86.539062 240.34375 86.351562 239.976562 C 86.164062 239.613281 86.058594 239.222656 86.023438 238.816406 C 85.492188 239.191406 84.902344 239.382812 84.25 239.382812 C 83.835938 239.378906 83.441406 239.300781 83.0625 239.144531 C 82.679688 238.984375 82.34375 238.761719 82.054688 238.46875 C 81.761719 238.179688 81.539062 237.84375 81.378906 237.464844 C 81.222656 237.082031 81.140625 236.6875 81.140625 236.277344 L 81.140625 227.992188 C 81.140625 227.582031 81.21875 227.183594 81.378906 226.804688 C 81.535156 226.425781 81.757812 226.089844 82.046875 225.800781 C 82.339844 225.507812 82.671875 225.28125 83.054688 225.125 C 83.433594 224.964844 83.828125 224.882812 84.238281 224.882812 Z M 84.238281 224.882812 " fill-opacity="1" fill-rule="nonzero"/></g><path fill="#ea392c" d="M 69.421875 188.429688 C 67.667969 188.429688 66.347656 186.734375 66.347656 184.492188 C 66.347656 183.921875 66.875 183.457031 67.539062 183.457031 C 68.199219 183.457031 68.726562 183.921875 68.726562 184.492188 C 68.726562 185.648438 69.253906 186.304688 69.457031 186.359375 C 69.621094 186.304688 70.148438 185.644531 70.148438 184.492188 C 70.148438 183.921875 70.675781 183.457031 71.339844 183.457031 C 72 183.457031 72.527344 183.921875 72.527344 184.492188 C 72.496094 186.734375 71.175781 188.429688 69.421875 188.429688 Z M 69.421875 188.429688 " fill-opacity="1" fill-rule="nonzero"/><path fill="#ea392c" d="M 85.234375 188.429688 C 83.484375 188.429688 82.160156 186.734375 82.160156 184.492188 C 82.160156 183.921875 82.691406 183.457031 83.351562 183.457031 C 84.007812 183.457031 84.539062 183.921875 84.539062 184.492188 C 84.539062 185.648438 85.070312 186.304688 85.269531 186.359375 C 85.433594 186.304688 85.957031 185.644531 85.957031 184.492188 C 85.957031 183.921875 86.488281 183.457031 87.148438 183.457031 C 87.808594 183.457031 88.339844 183.921875 88.339844 184.492188 C 88.308594 186.734375 86.988281 188.429688 85.234375 188.429688 Z M 85.234375 188.429688 " fill-opacity="1" fill-rule="nonzero"/><path fill="#ea392c" d="M 61.21875 198.171875 C 59.46875 198.171875 58.148438 196.480469 58.148438 194.238281 C 58.148438 193.667969 58.675781 193.199219 59.335938 193.199219 C 60 193.199219 60.527344 193.675781 60.527344 194.238281 C 60.527344 195.390625 61.054688 196.046875 61.253906 196.101562 C 61.417969 196.046875 61.949219 195.390625 61.949219 194.238281 C 61.949219 193.667969 62.476562 193.199219 63.136719 193.199219 C 63.800781 193.199219 64.328125 193.675781 64.328125 194.238281 C 64.296875 196.480469 62.972656 198.171875 61.21875 198.171875 Z M 61.21875 198.171875 " fill-opacity="1" fill-rule="nonzero"/><path fill="#ea392c" d="M 77.328125 198.171875 C 75.574219 198.171875 74.253906 196.480469 74.253906 194.238281 C 74.253906 193.667969 74.78125 193.199219 75.441406 193.199219 C 76.101562 193.199219 76.632812 193.675781 76.632812 194.238281 C 76.632812 195.390625 77.160156 196.046875 77.359375 196.101562 C 77.523438 196.046875 78.050781 195.390625 78.050781 194.238281 C 78.050781 193.667969 78.582031 193.199219 79.242188 193.199219 C 79.902344 193.199219 80.429688 193.675781 80.429688 194.238281 C 80.402344 196.480469 79.082031 198.171875 77.328125 198.171875 Z M 77.328125 198.171875 " fill-opacity="1" fill-rule="nonzero"/><path fill="#ea392c" d="M 93.433594 198.171875 C 91.683594 198.171875 90.359375 196.480469 90.359375 194.238281 C 90.359375 193.667969 90.890625 193.199219 91.550781 193.199219 C 92.210938 193.199219 92.738281 193.675781 92.738281 194.238281 C 92.738281 195.390625 93.265625 196.046875 93.46875 196.101562 C 93.632812 196.046875 94.160156 195.390625 94.160156 194.238281 C 94.160156 193.667969 94.691406 193.199219 95.347656 193.199219 C 96.007812 193.199219 96.539062 193.675781 96.539062 194.238281 C 96.507812 196.480469 95.191406 198.171875 93.433594 198.171875 Z M 93.433594 198.171875 " fill-opacity="1" fill-rule="nonzero"/><path fill="#ea392c" d="M 61.21875 217.660156 C 59.46875 217.660156 58.148438 215.96875 58.148438 213.722656 C 58.148438 213.152344 58.675781 212.691406 59.335938 212.691406 C 60 212.691406 60.527344 213.152344 60.527344 213.722656 C 60.527344 214.878906 61.054688 215.535156 61.253906 215.589844 C 61.417969 215.535156 61.949219 214.878906 61.949219 213.722656 C 61.949219 213.152344 62.476562 212.691406 63.136719 212.691406 C 63.800781 212.691406 64.328125 213.152344 64.328125 213.722656 C 64.296875 215.96875 62.972656 217.660156 61.21875 217.660156 Z M 61.21875 217.660156 " fill-opacity="1" fill-rule="nonzero"/><path fill="#ea392c" d="M 77.328125 217.660156 C 75.574219 217.660156 74.253906 215.96875 74.253906 213.722656 C 74.253906 213.152344 74.78125 212.691406 75.441406 212.691406 C 76.101562 212.691406 76.632812 213.152344 76.632812 213.722656 C 76.632812 214.878906 77.160156 215.535156 77.359375 215.589844 C 77.523438 215.535156 78.050781 214.878906 78.050781 213.722656 C 78.050781 213.152344 78.582031 212.691406 79.242188 212.691406 C 79.902344 212.691406 80.429688 213.152344 80.429688 213.722656 C 80.402344 215.96875 79.082031 217.660156 77.328125 217.660156 Z M 77.328125 217.660156 " fill-opacity="1" fill-rule="nonzero"/><path fill="#ea392c" d="M 93.433594 217.660156 C 91.683594 217.660156 90.359375 215.96875 90.359375 213.722656 C 90.359375 213.152344 90.890625 212.691406 91.550781 212.691406 C 92.210938 212.691406 92.738281 213.152344 92.738281 213.722656 C 92.738281 214.878906 93.265625 215.535156 93.46875 215.589844 C 93.632812 215.535156 94.160156 214.878906 94.160156 213.722656 C 94.160156 213.152344 94.691406 212.691406 95.347656 212.691406 C 96.007812 212.691406 96.539062 213.152344 96.539062 213.722656 C 96.507812 215.96875 95.191406 217.660156 93.433594 217.660156 Z M 93.433594 217.660156 " fill-opacity="1" fill-rule="nonzero"/><path fill="#ea392c" d="M 69.421875 207.914062 C 67.667969 207.914062 66.347656 206.222656 66.347656 203.980469 C 66.347656 203.410156 66.875 202.945312 67.539062 202.945312 C 68.199219 202.945312 68.726562 203.410156 68.726562 203.980469 C 68.726562 205.136719 69.253906 205.789062 69.457031 205.847656 C 69.621094 205.789062 70.148438 205.136719 70.148438 203.980469 C 70.148438 203.410156 70.675781 202.945312 71.339844 202.945312 C 72 202.945312 72.527344 203.410156 72.527344 203.980469 C 72.496094 206.222656 71.175781 207.914062 69.421875 207.914062 Z M 69.421875 207.914062 " fill-opacity="1" fill-rule="nonzero"/><path fill="#ea392c" d="M 85.234375 207.914062 C 83.484375 207.914062 82.160156 206.222656 82.160156 203.980469 C 82.160156 203.410156 82.691406 202.945312 83.351562 202.945312 C 84.007812 202.945312 84.539062 203.410156 84.539062 203.980469 C 84.539062 205.136719 85.070312 205.789062 85.269531 205.847656 C 85.433594 205.789062 85.957031 205.136719 85.957031 203.980469 C 85.957031 203.410156 86.488281 202.945312 87.148438 202.945312 C 87.808594 202.945312 88.339844 203.410156 88.339844 203.980469 C 88.308594 206.222656 86.988281 207.914062 85.234375 207.914062 Z M 85.234375 207.914062 " fill-opacity="1" fill-rule="nonzero"/></svg>