<svg xmlns="http://www.w3.org/2000/svg" xmlns:xlink="http://www.w3.org/1999/xlink" width="500" zoomAndPan="magnify" viewBox="0 0 375 374.999991" height="500" preserveAspectRatio="xMidYMid meet" version="1.0"><defs><g/><clipPath id="bfacf5de6e"><path d="M 11.699219 116 L 69 116 L 69 130 L 11.699219 130 Z M 11.699219 116 " clip-rule="nonzero"/></clipPath><clipPath id="09d7cd6860"><path d="M 81 116 L 138.449219 116 L 138.449219 130 L 81 130 Z M 81 116 " clip-rule="nonzero"/></clipPath><clipPath id="b033260626"><path d="M 12 80.910156 L 138 80.910156 L 138 109 L 12 109 Z M 12 80.910156 " clip-rule="nonzero"/></clipPath><clipPath id="e0611452a3"><path d="M 55 221 L 72 221 L 72 237.660156 L 55 237.660156 Z M 55 221 " clip-rule="nonzero"/></clipPath><clipPath id="d0b8ff39c4"><path d="M 78 221 L 95 221 L 95 237.660156 L 78 237.660156 Z M 78 221 " clip-rule="nonzero"/></clipPath></defs><g fill="#2b2d42" fill-opacity="1"><g transform="translate(167.583179, 166.712107)"><g><path d="M 0.511719 -24.105469 C 0.253906 -23.8125 0.144531 -23.371094 0.183594 -22.804688 C 0.21875 -22.238281 0.253906 -21.820312 0.292969 -21.527344 C 0.328125 -20.429688 0.492188 -19.351562 0.785156 -18.328125 C 0.933594 -17.726562 1.078125 -17.195312 1.222656 -16.757812 C 1.371094 -16.300781 1.773438 -15.933594 2.394531 -15.660156 C 3.089844 -15.332031 3.875 -15.148438 4.714844 -15.113281 C 5.554688 -15.078125 6.359375 -15.039062 7.144531 -14.984375 C 7.546875 -14.949219 8.078125 -14.855469 8.734375 -14.746094 C 9.375 -14.621094 9.796875 -14.328125 9.976562 -13.851562 C 10.308594 -13.011719 10.542969 -12.207031 10.726562 -11.457031 C 11.09375 -9.941406 11.367188 -8.40625 11.550781 -6.871094 C 11.730469 -5.316406 12.0625 -3.800781 12.535156 -2.320312 C 12.664062 -1.847656 12.863281 -1.335938 13.121094 -0.765625 C 13.25 -0.4375 13.503906 -0.21875 13.886719 -0.128906 C 14.253906 -0.0351562 14.601562 0 14.929688 0 C 15.699219 0 16.554688 -0.0898438 17.507812 -0.273438 C 18.457031 -0.457031 19.242188 -0.765625 19.902344 -1.242188 C 20.339844 -1.570312 20.578125 -2.101562 20.613281 -2.832031 C 20.648438 -4.183594 20.539062 -5.609375 20.320312 -7.128906 C 20.101562 -8.625 19.917969 -10.070312 19.773438 -11.441406 C 19.699219 -12.097656 19.570312 -12.902344 19.40625 -13.871094 C 19.226562 -14.839844 19.351562 -15.589844 19.753906 -16.117188 C 20.136719 -16.628906 20.667969 -17.011719 21.363281 -17.304688 C 22.039062 -17.578125 22.660156 -17.835938 23.246094 -18.089844 C 23.664062 -18.273438 24.140625 -18.492188 24.6875 -18.75 C 25.21875 -19.003906 25.601562 -19.351562 25.820312 -19.808594 C 26.152344 -20.539062 26.1875 -21.691406 25.949219 -23.246094 C 25.695312 -24.78125 25.347656 -25.914062 24.871094 -26.609375 C 24.453125 -27.191406 23.8125 -27.449219 22.972656 -27.339844 C 22.222656 -27.230469 21.492188 -27.046875 20.757812 -26.789062 C 20.027344 -26.535156 19.316406 -26.332031 18.585938 -26.1875 C 16.355469 -25.730469 14.125 -25.292969 11.898438 -24.871094 C 9.648438 -24.433594 7.402344 -24.230469 5.136719 -24.230469 C 4.039062 -24.230469 2.996094 -24.285156 2.011719 -24.414062 C 1.277344 -24.507812 0.765625 -24.394531 0.511719 -24.105469 Z M 0.511719 -24.105469 "/></g></g></g><g fill="#2b2d42" fill-opacity="1"><g transform="translate(199.285449, 166.712107)"><g><path d="M 0.824219 -15.808594 C 0.601562 -14.054688 0.492188 -12.097656 0.476562 -9.941406 C 0.457031 -7.785156 0.933594 -5.902344 1.882812 -4.3125 C 2.757812 -2.777344 4.039062 -1.679688 5.71875 -1.023438 C 7.402344 -0.367188 9.082031 -0.0742188 10.761719 -0.183594 C 12.9375 -0.292969 14.910156 -1.003906 16.667969 -2.285156 C 18.546875 -3.636719 20.011719 -5.425781 21.050781 -7.621094 C 22.074219 -9.8125 22.84375 -12.023438 23.335938 -14.253906 C 23.664062 -15.789062 23.957031 -17.945312 24.25 -20.703125 C 24.542969 -23.445312 24.378906 -25.566406 23.773438 -27.046875 C 23.554688 -27.558594 23.207031 -27.851562 22.734375 -27.921875 C 21.894531 -28.050781 20.871094 -27.90625 19.679688 -27.464844 C 18.476562 -27.027344 17.652344 -26.570312 17.179688 -26.097656 C 16.957031 -25.914062 16.8125 -25.695312 16.738281 -25.457031 C 16.574219 -25.089844 16.519531 -24.6875 16.554688 -24.269531 C 16.59375 -23.847656 16.628906 -23.464844 16.683594 -23.097656 C 16.847656 -21.710938 16.847656 -20.25 16.683594 -18.695312 C 16.519531 -17.125 16.246094 -15.679688 15.878906 -14.328125 C 15.625 -13.414062 15.3125 -12.644531 14.949219 -11.988281 C 14.417969 -11.074219 13.488281 -10.253906 12.132812 -9.558594 C 10.78125 -8.863281 9.941406 -9.394531 9.613281 -11.183594 C 9.320312 -12.609375 9.375 -14.164062 9.777344 -15.808594 C 10.179688 -17.453125 10.597656 -18.949219 11.074219 -20.304688 C 11.183594 -20.667969 11.367188 -21.289062 11.660156 -22.183594 C 11.953125 -23.0625 11.988281 -23.664062 11.785156 -23.957031 C 11.164062 -24.726562 10.015625 -25.273438 8.332031 -25.566406 C 6.652344 -25.859375 5.355469 -25.96875 4.441406 -25.929688 C 3.820312 -25.894531 3.308594 -25.4375 2.886719 -24.578125 C 2.449219 -23.703125 2.101562 -22.714844 1.808594 -21.582031 C 1.515625 -20.449219 1.296875 -19.335938 1.132812 -18.238281 C 0.96875 -17.125 0.859375 -16.320312 0.824219 -15.808594 Z M 0.824219 -15.808594 "/></g></g></g><g fill="#2b2d42" fill-opacity="1"><g transform="translate(229.27049, 166.712107)"><g><path d="M 0.511719 -24.105469 C 0.253906 -23.8125 0.144531 -23.371094 0.183594 -22.804688 C 0.21875 -22.238281 0.253906 -21.820312 0.292969 -21.527344 C 0.328125 -20.429688 0.492188 -19.351562 0.785156 -18.328125 C 0.933594 -17.726562 1.078125 -17.195312 1.222656 -16.757812 C 1.371094 -16.300781 1.773438 -15.933594 2.394531 -15.660156 C 3.089844 -15.332031 3.875 -15.148438 4.714844 -15.113281 C 5.554688 -15.078125 6.359375 -15.039062 7.144531 -14.984375 C 7.546875 -14.949219 8.078125 -14.855469 8.734375 -14.746094 C 9.375 -14.621094 9.796875 -14.328125 9.976562 -13.851562 C 10.308594 -13.011719 10.542969 -12.207031 10.726562 -11.457031 C 11.09375 -9.941406 11.367188 -8.40625 11.550781 -6.871094 C 11.730469 -5.316406 12.0625 -3.800781 12.535156 -2.320312 C 12.664062 -1.847656 12.863281 -1.335938 13.121094 -0.765625 C 13.25 -0.4375 13.503906 -0.21875 13.886719 -0.128906 C 14.253906 -0.0351562 14.601562 0 14.929688 0 C 15.699219 0 16.554688 -0.0898438 17.507812 -0.273438 C 18.457031 -0.457031 19.242188 -0.765625 19.902344 -1.242188 C 20.339844 -1.570312 20.578125 -2.101562 20.613281 -2.832031 C 20.648438 -4.183594 20.539062 -5.609375 20.320312 -7.128906 C 20.101562 -8.625 19.917969 -10.070312 19.773438 -11.441406 C 19.699219 -12.097656 19.570312 -12.902344 19.40625 -13.871094 C 19.226562 -14.839844 19.351562 -15.589844 19.753906 -16.117188 C 20.136719 -16.628906 20.667969 -17.011719 21.363281 -17.304688 C 22.039062 -17.578125 22.660156 -17.835938 23.246094 -18.089844 C 23.664062 -18.273438 24.140625 -18.492188 24.6875 -18.75 C 25.21875 -19.003906 25.601562 -19.351562 25.820312 -19.808594 C 26.152344 -20.539062 26.1875 -21.691406 25.949219 -23.246094 C 25.695312 -24.78125 25.347656 -25.914062 24.871094 -26.609375 C 24.453125 -27.191406 23.8125 -27.449219 22.972656 -27.339844 C 22.222656 -27.230469 21.492188 -27.046875 20.757812 -26.789062 C 20.027344 -26.535156 19.316406 -26.332031 18.585938 -26.1875 C 16.355469 -25.730469 14.125 -25.292969 11.898438 -24.871094 C 9.648438 -24.433594 7.402344 -24.230469 5.136719 -24.230469 C 4.039062 -24.230469 2.996094 -24.285156 2.011719 -24.414062 C 1.277344 -24.507812 0.765625 -24.394531 0.511719 -24.105469 Z M 0.511719 -24.105469 "/></g></g></g><g fill="#2b2d42" fill-opacity="1"><g transform="translate(260.97276, 166.712107)"><g><path d="M 1.40625 -16.28125 C 0.4375 -14.363281 0 -12.242188 0.0898438 -9.921875 C 0.164062 -8.316406 0.476562 -6.90625 1.058594 -5.71875 C 1.644531 -4.476562 2.503906 -3.453125 3.601562 -2.648438 C 4.695312 -1.847656 5.902344 -1.242188 7.183594 -0.804688 C 8.863281 -0.21875 10.597656 0 12.410156 -0.144531 C 14.199219 -0.328125 15.863281 -0.859375 17.398438 -1.773438 C 18.933594 -2.667969 20.320312 -3.78125 21.527344 -5.097656 C 22.332031 -5.976562 23.097656 -6.960938 23.847656 -8.078125 C 24.597656 -9.191406 25.164062 -10.34375 25.566406 -11.511719 C 26.1875 -13.449219 26.40625 -15.625 26.222656 -18.035156 C 26.152344 -18.730469 26.023438 -19.425781 25.875 -20.136719 C 25.730469 -20.832031 25.492188 -21.507812 25.164062 -22.128906 C 24.652344 -23.082031 23.882812 -23.941406 22.898438 -24.742188 C 21.894531 -25.53125 20.886719 -26.078125 19.863281 -26.371094 C 17.746094 -26.972656 15.535156 -26.972656 13.230469 -26.351562 C 10.542969 -25.621094 8.152344 -24.324219 6.066406 -22.460938 C 5.738281 -22.167969 5.390625 -21.839844 5.0625 -21.507812 C 4.277344 -20.742188 3.582031 -19.902344 2.996094 -19.023438 C 2.414062 -18.148438 1.882812 -17.234375 1.40625 -16.28125 Z M 8.550781 -12.390625 C 8.550781 -13.597656 8.882812 -14.457031 9.539062 -14.929688 C 10.195312 -15.40625 10.964844 -15.605469 11.824219 -15.496094 C 12.683594 -15.386719 13.523438 -15.023438 14.34375 -14.398438 C 15.148438 -13.777344 15.714844 -13.011719 16.027344 -12.0625 C 16.28125 -11.21875 16.320312 -10.417969 16.136719 -9.648438 C 15.953125 -8.882812 15.421875 -8.277344 14.546875 -7.839844 C 13.195312 -7.144531 11.84375 -7.4375 10.527344 -8.71875 C 9.210938 -9.976562 8.550781 -11.203125 8.550781 -12.390625 Z M 8.550781 -12.390625 "/></g></g></g><g fill="#2b2d42" fill-opacity="1"><g transform="translate(292.87599, 166.712107)"><g><path d="M 0.328125 -21.328125 C 0.144531 -19.390625 0.199219 -17.359375 0.492188 -15.277344 C 0.765625 -13.195312 1.097656 -11.238281 1.5 -9.449219 C 1.515625 -9.300781 1.535156 -9.15625 1.570312 -9.007812 C 1.609375 -8.863281 1.644531 -8.734375 1.679688 -8.605469 C 1.828125 -7.839844 2.210938 -6.46875 2.796875 -4.457031 C 3.378906 -2.449219 3.929688 -1.207031 4.421875 -0.695312 C 4.640625 -0.421875 4.933594 -0.253906 5.261719 -0.183594 C 5.59375 -0.109375 5.9375 -0.0742188 6.269531 -0.0546875 C 6.726562 -0.0195312 7.238281 0 7.820312 0 C 8.40625 0 8.917969 -0.0351562 9.394531 -0.109375 C 9.796875 -0.144531 10.085938 -0.238281 10.269531 -0.382812 C 10.453125 -0.53125 10.527344 -0.839844 10.453125 -1.316406 C 10.308594 -2.082031 10.160156 -3.234375 10.03125 -4.804688 C 9.90625 -6.359375 10.160156 -7.4375 10.800781 -8.039062 C 11.386719 -8.589844 11.933594 -8.773438 12.445312 -8.589844 C 12.957031 -8.40625 13.449219 -8.078125 13.945312 -7.601562 C 14.785156 -6.6875 15.898438 -5.425781 17.324219 -3.820312 C 18.75 -2.210938 20.136719 -1.132812 21.492188 -0.601562 C 22.351562 -0.238281 23.136719 -0.292969 23.828125 -0.730469 C 24.359375 -1.058594 24.945312 -1.5 25.566406 -2.066406 C 26.1875 -2.632812 26.664062 -3.179688 27.027344 -3.691406 C 27.449219 -4.292969 27.339844 -4.789062 26.71875 -5.191406 C 26.496094 -5.300781 26.1875 -5.480469 25.75 -5.738281 C 25.566406 -5.828125 25.402344 -5.921875 25.238281 -6.011719 C 25.074219 -6.105469 24.90625 -6.214844 24.761719 -6.324219 C 24.324219 -6.578125 23.996094 -6.78125 23.792969 -6.925781 C 23.390625 -7.183594 23.097656 -7.402344 22.878906 -7.582031 C 22.605469 -7.785156 22.332031 -8.023438 22.074219 -8.316406 C 21.820312 -8.550781 21.617188 -8.828125 21.4375 -9.15625 C 21.253906 -9.449219 21.105469 -9.757812 20.996094 -10.085938 C 20.851562 -10.417969 20.777344 -10.78125 20.777344 -11.183594 C 20.742188 -11.714844 20.886719 -12.207031 21.253906 -12.683594 C 21.65625 -13.195312 22.113281 -13.652344 22.640625 -14.054688 C 23.152344 -14.457031 23.574219 -14.964844 23.882812 -15.589844 C 24.617188 -17.050781 24.632812 -18.601562 23.957031 -20.210938 C 23.28125 -21.820312 22.367188 -23.152344 21.214844 -24.175781 C 18.695312 -26.371094 15.605469 -27.375 11.933594 -27.175781 C 8.261719 -26.972656 5.097656 -26.113281 2.429688 -24.578125 C 1.425781 -23.996094 0.839844 -23.539062 0.675781 -23.226562 C 0.511719 -22.898438 0.402344 -22.277344 0.328125 -21.328125 Z M 14.636719 -20.960938 C 15.242188 -20.777344 15.753906 -20.414062 16.191406 -19.882812 C 16.757812 -19.113281 16.867188 -18.292969 16.539062 -17.433594 C 16.191406 -16.574219 15.625 -15.972656 14.855469 -15.605469 C 14.382812 -15.386719 13.886719 -15.222656 13.359375 -15.113281 C 12.828125 -15.003906 12.316406 -14.910156 11.824219 -14.875 C 10.78125 -14.785156 9.976562 -15.058594 9.429688 -15.714844 C 9.15625 -16.007812 8.972656 -16.59375 8.863281 -17.453125 C 8.753906 -18.292969 8.773438 -18.933594 8.917969 -19.335938 C 9.171875 -20.011719 9.667969 -20.484375 10.378906 -20.757812 C 11.84375 -21.269531 13.265625 -21.34375 14.636719 -20.960938 Z M 14.636719 -20.960938 "/></g></g></g><g fill="#2b2d42" fill-opacity="1"><g transform="translate(325.99284, 166.712107)"><g/></g></g><g fill="#2b2d42" fill-opacity="1"><g transform="translate(143.757096, 203.376658)"><g><path d="M 6.960938 -26.132812 C 6.542969 -27.082031 6.050781 -27.574219 5.464844 -27.613281 C 4.878906 -27.648438 4.203125 -27.503906 3.472656 -27.15625 C 2.941406 -26.898438 2.375 -26.554688 1.789062 -26.152344 C 1.207031 -25.730469 0.75 -25.292969 0.421875 -24.816406 C 0.128906 -24.394531 0 -23.902344 0.0195312 -23.355469 C 0.0195312 -22.625 0.199219 -21.726562 0.546875 -20.703125 C 0.914062 -19.535156 1.535156 -18.109375 2.429688 -16.429688 C 3.324219 -14.746094 4.332031 -13.03125 5.445312 -11.292969 C 6.558594 -9.558594 7.710938 -7.914062 8.898438 -6.378906 C 10.085938 -4.84375 11.164062 -3.636719 12.152344 -2.757812 C 13.03125 -1.9375 14.398438 -1.296875 16.226562 -0.839844 C 18.054688 -0.382812 19.589844 -0.328125 20.796875 -0.695312 C 21.453125 -0.878906 22.019531 -1.277344 22.496094 -1.902344 C 22.953125 -2.503906 23.335938 -3.105469 23.664062 -3.691406 C 24.269531 -4.824219 24.871094 -6.324219 25.472656 -8.1875 C 26.058594 -10.03125 26.589844 -11.96875 27.0625 -13.980469 C 27.539062 -15.988281 27.90625 -17.925781 28.179688 -19.828125 C 28.453125 -21.710938 28.582031 -23.261719 28.5625 -24.507812 C 28.527344 -25.566406 28.398438 -26.441406 28.179688 -27.175781 C 27.996094 -27.703125 27.703125 -28.125 27.300781 -28.417969 C 26.808594 -28.746094 26.222656 -29 25.53125 -29.203125 C 24.835938 -29.386719 24.195312 -29.511719 23.648438 -29.585938 C 22.804688 -29.660156 22.113281 -29.585938 21.582031 -29.347656 C 21.050781 -29.109375 20.757812 -28.488281 20.703125 -27.464844 C 20.523438 -24.78125 20.101562 -21.910156 19.480469 -18.878906 C 18.839844 -15.84375 18.019531 -12.976562 16.996094 -10.308594 C 14.984375 -12.535156 13.085938 -15.078125 11.3125 -17.925781 C 9.539062 -20.757812 8.09375 -23.5 6.960938 -26.132812 Z M 6.960938 -26.132812 "/></g></g></g><g fill="#2b2d42" fill-opacity="1"><g transform="translate(177.852536, 203.376658)"><g><path d="M 0.0195312 -5.5 C 0 -5.316406 0 -5.082031 0.0351562 -4.769531 C 0.0351562 -4.496094 0.0898438 -4.277344 0.164062 -4.113281 C 0.164062 -4.003906 0.199219 -3.835938 0.273438 -3.617188 C 0.3125 -3.398438 0.367188 -3.160156 0.4375 -2.90625 C 0.511719 -2.613281 0.585938 -2.375 0.65625 -2.210938 C 0.730469 -1.992188 0.804688 -1.847656 0.894531 -1.789062 C 1.167969 -1.535156 1.296875 -1.425781 1.296875 -1.445312 C 1.480469 -1.296875 1.644531 -1.1875 1.753906 -1.113281 C 1.972656 -0.96875 2.136719 -0.878906 2.230469 -0.839844 C 2.320312 -0.785156 2.484375 -0.730469 2.703125 -0.65625 C 3.363281 -0.511719 4.167969 -0.382812 5.097656 -0.292969 C 6.304688 -0.128906 7.457031 -0.0351562 8.515625 -0.0195312 C 9.101562 0 9.667969 0 10.234375 0 C 10.800781 0 11.332031 -0.0546875 11.804688 -0.128906 C 12.828125 -0.273438 13.503906 -0.53125 13.816406 -0.894531 C 13.980469 -1.097656 14.164062 -1.480469 14.34375 -2.046875 C 14.527344 -2.59375 14.636719 -3.179688 14.675781 -3.78125 C 14.710938 -4.441406 14.65625 -4.988281 14.511719 -5.425781 C 14.289062 -5.921875 13.960938 -6.230469 13.523438 -6.339844 C 13.449219 -6.339844 13.359375 -6.339844 13.265625 -6.359375 C 13.175781 -6.378906 13.085938 -6.394531 12.976562 -6.414062 C 12.644531 -6.449219 12.390625 -6.46875 12.171875 -6.503906 C 12.023438 -6.503906 11.859375 -6.503906 11.695312 -6.523438 C 11.53125 -6.542969 11.367188 -6.558594 11.203125 -6.578125 C 10.945312 -6.597656 10.582031 -6.617188 10.070312 -6.652344 C 9.941406 -7.730469 9.867188 -8.953125 9.832031 -10.308594 C 9.777344 -11.550781 9.777344 -12.808594 9.832031 -14.125 C 9.886719 -15.605469 9.976562 -16.886719 10.085938 -17.980469 C 10.160156 -19.097656 10.324219 -20.359375 10.542969 -21.765625 C 11.273438 -21.726562 11.785156 -21.726562 12.097656 -21.726562 C 12.644531 -21.710938 13.210938 -21.746094 13.777344 -21.820312 C 14.34375 -21.894531 14.65625 -22.332031 14.691406 -23.136719 C 14.691406 -23.390625 14.691406 -23.648438 14.675781 -23.867188 C 14.636719 -24.085938 14.601562 -24.304688 14.566406 -24.542969 C 14.527344 -24.597656 14.492188 -24.761719 14.457031 -25.019531 C 14.34375 -25.417969 14.273438 -25.65625 14.273438 -25.730469 C 14.199219 -25.949219 14.144531 -26.167969 14.070312 -26.425781 C 14 -26.609375 13.90625 -26.734375 13.832031 -26.84375 C 13.613281 -27.007812 13.488281 -27.121094 13.414062 -27.191406 L 12.976562 -27.519531 C 12.773438 -27.632812 12.609375 -27.722656 12.5 -27.796875 C 12.28125 -27.886719 12.117188 -27.941406 12.007812 -27.976562 C 11.386719 -28.085938 10.597656 -28.214844 9.613281 -28.363281 C 8.535156 -28.472656 7.402344 -28.5625 6.214844 -28.617188 C 4.96875 -28.65625 3.875 -28.617188 2.925781 -28.507812 C 1.902344 -28.363281 1.222656 -28.105469 0.914062 -27.742188 C 0.695312 -27.484375 0.53125 -27.101562 0.382812 -26.589844 C 0.199219 -26.042969 0.0742188 -25.457031 0.0351562 -24.851562 C 0 -24.160156 0.0546875 -23.609375 0.21875 -23.207031 C 0.402344 -22.695312 0.710938 -22.386719 1.1875 -22.3125 C 1.371094 -22.257812 1.5 -22.238281 1.535156 -22.238281 C 1.71875 -22.203125 1.882812 -22.183594 1.992188 -22.183594 C 2.230469 -22.148438 2.414062 -22.128906 2.558594 -22.128906 C 2.6875 -22.113281 2.90625 -22.09375 3.199219 -22.074219 C 3.015625 -21.089844 2.832031 -19.882812 2.6875 -18.457031 C 2.539062 -17.179688 2.429688 -15.84375 2.355469 -14.457031 C 2.265625 -12.863281 2.230469 -11.53125 2.230469 -10.472656 C 2.230469 -9.15625 2.265625 -7.96875 2.339844 -6.90625 L 1.480469 -6.90625 C 0.53125 -6.90625 0.0351562 -6.433594 0.0195312 -5.5 Z M 0.0195312 -5.5 "/></g></g></g><g fill="#2b2d42" fill-opacity="1"><g transform="translate(197.388045, 203.376658)"><g><path d="M 0.328125 -21.328125 C 0.144531 -19.390625 0.199219 -17.359375 0.492188 -15.277344 C 0.765625 -13.195312 1.097656 -11.238281 1.5 -9.449219 C 1.515625 -9.300781 1.535156 -9.15625 1.570312 -9.007812 C 1.609375 -8.863281 1.644531 -8.734375 1.679688 -8.605469 C 1.828125 -7.839844 2.210938 -6.46875 2.796875 -4.457031 C 3.378906 -2.449219 3.929688 -1.207031 4.421875 -0.695312 C 4.640625 -0.421875 4.933594 -0.253906 5.261719 -0.183594 C 5.59375 -0.109375 5.9375 -0.0742188 6.269531 -0.0546875 C 6.726562 -0.0195312 7.238281 0 7.820312 0 C 8.40625 0 8.917969 -0.0351562 9.394531 -0.109375 C 9.796875 -0.144531 10.085938 -0.238281 10.269531 -0.382812 C 10.453125 -0.53125 10.527344 -0.839844 10.453125 -1.316406 C 10.308594 -2.082031 10.160156 -3.234375 10.03125 -4.804688 C 9.90625 -6.359375 10.160156 -7.4375 10.800781 -8.039062 C 11.386719 -8.589844 11.933594 -8.773438 12.445312 -8.589844 C 12.957031 -8.40625 13.449219 -8.078125 13.945312 -7.601562 C 14.785156 -6.6875 15.898438 -5.425781 17.324219 -3.820312 C 18.75 -2.210938 20.136719 -1.132812 21.492188 -0.601562 C 22.351562 -0.238281 23.136719 -0.292969 23.828125 -0.730469 C 24.359375 -1.058594 24.945312 -1.5 25.566406 -2.066406 C 26.1875 -2.632812 26.664062 -3.179688 27.027344 -3.691406 C 27.449219 -4.292969 27.339844 -4.789062 26.71875 -5.191406 C 26.496094 -5.300781 26.1875 -5.480469 25.75 -5.738281 C 25.566406 -5.828125 25.402344 -5.921875 25.238281 -6.011719 C 25.074219 -6.105469 24.90625 -6.214844 24.761719 -6.324219 C 24.324219 -6.578125 23.996094 -6.78125 23.792969 -6.925781 C 23.390625 -7.183594 23.097656 -7.402344 22.878906 -7.582031 C 22.605469 -7.785156 22.332031 -8.023438 22.074219 -8.316406 C 21.820312 -8.550781 21.617188 -8.828125 21.4375 -9.15625 C 21.253906 -9.449219 21.105469 -9.757812 20.996094 -10.085938 C 20.851562 -10.417969 20.777344 -10.78125 20.777344 -11.183594 C 20.742188 -11.714844 20.886719 -12.207031 21.253906 -12.683594 C 21.65625 -13.195312 22.113281 -13.652344 22.640625 -14.054688 C 23.152344 -14.457031 23.574219 -14.964844 23.882812 -15.589844 C 24.617188 -17.050781 24.632812 -18.601562 23.957031 -20.210938 C 23.28125 -21.820312 22.367188 -23.152344 21.214844 -24.175781 C 18.695312 -26.371094 15.605469 -27.375 11.933594 -27.175781 C 8.261719 -26.972656 5.097656 -26.113281 2.429688 -24.578125 C 1.425781 -23.996094 0.839844 -23.539062 0.675781 -23.226562 C 0.511719 -22.898438 0.402344 -22.277344 0.328125 -21.328125 Z M 14.636719 -20.960938 C 15.242188 -20.777344 15.753906 -20.414062 16.191406 -19.882812 C 16.757812 -19.113281 16.867188 -18.292969 16.539062 -17.433594 C 16.191406 -16.574219 15.625 -15.972656 14.855469 -15.605469 C 14.382812 -15.386719 13.886719 -15.222656 13.359375 -15.113281 C 12.828125 -15.003906 12.316406 -14.910156 11.824219 -14.875 C 10.78125 -14.785156 9.976562 -15.058594 9.429688 -15.714844 C 9.15625 -16.007812 8.972656 -16.59375 8.863281 -17.453125 C 8.753906 -18.292969 8.773438 -18.933594 8.917969 -19.335938 C 9.171875 -20.011719 9.667969 -20.484375 10.378906 -20.757812 C 11.84375 -21.269531 13.265625 -21.34375 14.636719 -20.960938 Z M 14.636719 -20.960938 "/></g></g></g><g fill="#2b2d42" fill-opacity="1"><g transform="translate(230.49699, 203.376658)"><g><path d="M 0.511719 -24.105469 C 0.253906 -23.8125 0.144531 -23.371094 0.183594 -22.804688 C 0.21875 -22.238281 0.253906 -21.820312 0.292969 -21.527344 C 0.328125 -20.429688 0.492188 -19.351562 0.785156 -18.328125 C 0.933594 -17.726562 1.078125 -17.195312 1.222656 -16.757812 C 1.371094 -16.300781 1.773438 -15.933594 2.394531 -15.660156 C 3.089844 -15.332031 3.875 -15.148438 4.714844 -15.113281 C 5.554688 -15.078125 6.359375 -15.039062 7.144531 -14.984375 C 7.546875 -14.949219 8.078125 -14.855469 8.734375 -14.746094 C 9.375 -14.621094 9.796875 -14.328125 9.976562 -13.851562 C 10.308594 -13.011719 10.542969 -12.207031 10.726562 -11.457031 C 11.09375 -9.941406 11.367188 -8.40625 11.550781 -6.871094 C 11.730469 -5.316406 12.0625 -3.800781 12.535156 -2.320312 C 12.664062 -1.847656 12.863281 -1.335938 13.121094 -0.765625 C 13.25 -0.4375 13.503906 -0.21875 13.886719 -0.128906 C 14.253906 -0.0351562 14.601562 0 14.929688 0 C 15.699219 0 16.554688 -0.0898438 17.507812 -0.273438 C 18.457031 -0.457031 19.242188 -0.765625 19.902344 -1.242188 C 20.339844 -1.570312 20.578125 -2.101562 20.613281 -2.832031 C 20.648438 -4.183594 20.539062 -5.609375 20.320312 -7.128906 C 20.101562 -8.625 19.917969 -10.070312 19.773438 -11.441406 C 19.699219 -12.097656 19.570312 -12.902344 19.40625 -13.871094 C 19.226562 -14.839844 19.351562 -15.589844 19.753906 -16.117188 C 20.136719 -16.628906 20.667969 -17.011719 21.363281 -17.304688 C 22.039062 -17.578125 22.660156 -17.835938 23.246094 -18.089844 C 23.664062 -18.273438 24.140625 -18.492188 24.6875 -18.75 C 25.21875 -19.003906 25.601562 -19.351562 25.820312 -19.808594 C 26.152344 -20.539062 26.1875 -21.691406 25.949219 -23.246094 C 25.695312 -24.78125 25.347656 -25.914062 24.871094 -26.609375 C 24.453125 -27.191406 23.8125 -27.449219 22.972656 -27.339844 C 22.222656 -27.230469 21.492188 -27.046875 20.757812 -26.789062 C 20.027344 -26.535156 19.316406 -26.332031 18.585938 -26.1875 C 16.355469 -25.730469 14.125 -25.292969 11.898438 -24.871094 C 9.648438 -24.433594 7.402344 -24.230469 5.136719 -24.230469 C 4.039062 -24.230469 2.996094 -24.285156 2.011719 -24.414062 C 1.277344 -24.507812 0.765625 -24.394531 0.511719 -24.105469 Z M 0.511719 -24.105469 "/></g></g></g><g fill="#2b2d42" fill-opacity="1"><g transform="translate(262.199261, 203.376658)"><g><path d="M 0.824219 -15.808594 C 0.601562 -14.054688 0.492188 -12.097656 0.476562 -9.941406 C 0.457031 -7.785156 0.933594 -5.902344 1.882812 -4.3125 C 2.757812 -2.777344 4.039062 -1.679688 5.71875 -1.023438 C 7.402344 -0.367188 9.082031 -0.0742188 10.761719 -0.183594 C 12.9375 -0.292969 14.910156 -1.003906 16.667969 -2.285156 C 18.546875 -3.636719 20.011719 -5.425781 21.050781 -7.621094 C 22.074219 -9.8125 22.84375 -12.023438 23.335938 -14.253906 C 23.664062 -15.789062 23.957031 -17.945312 24.25 -20.703125 C 24.542969 -23.445312 24.378906 -25.566406 23.773438 -27.046875 C 23.554688 -27.558594 23.207031 -27.851562 22.734375 -27.921875 C 21.894531 -28.050781 20.871094 -27.90625 19.679688 -27.464844 C 18.476562 -27.027344 17.652344 -26.570312 17.179688 -26.097656 C 16.957031 -25.914062 16.8125 -25.695312 16.738281 -25.457031 C 16.574219 -25.089844 16.519531 -24.6875 16.554688 -24.269531 C 16.59375 -23.847656 16.628906 -23.464844 16.683594 -23.097656 C 16.847656 -21.710938 16.847656 -20.25 16.683594 -18.695312 C 16.519531 -17.125 16.246094 -15.679688 15.878906 -14.328125 C 15.625 -13.414062 15.3125 -12.644531 14.949219 -11.988281 C 14.417969 -11.074219 13.488281 -10.253906 12.132812 -9.558594 C 10.78125 -8.863281 9.941406 -9.394531 9.613281 -11.183594 C 9.320312 -12.609375 9.375 -14.164062 9.777344 -15.808594 C 10.179688 -17.453125 10.597656 -18.949219 11.074219 -20.304688 C 11.183594 -20.667969 11.367188 -21.289062 11.660156 -22.183594 C 11.953125 -23.0625 11.988281 -23.664062 11.785156 -23.957031 C 11.164062 -24.726562 10.015625 -25.273438 8.332031 -25.566406 C 6.652344 -25.859375 5.355469 -25.96875 4.441406 -25.929688 C 3.820312 -25.894531 3.308594 -25.4375 2.886719 -24.578125 C 2.449219 -23.703125 2.101562 -22.714844 1.808594 -21.582031 C 1.515625 -20.449219 1.296875 -19.335938 1.132812 -18.238281 C 0.96875 -17.125 0.859375 -16.320312 0.824219 -15.808594 Z M 0.824219 -15.808594 "/></g></g></g><g fill="#2b2d42" fill-opacity="1"><g transform="translate(292.184301, 203.376658)"><g><path d="M 16.15625 -6.871094 C 16.667969 -5.171875 17.105469 -3.65625 17.433594 -2.300781 C 17.652344 -1.277344 18.035156 -0.710938 18.621094 -0.566406 C 19.1875 -0.421875 19.882812 -0.476562 20.6875 -0.695312 C 21.234375 -0.839844 21.820312 -1.058594 22.476562 -1.371094 C 23.117188 -1.664062 23.648438 -2.027344 24.085938 -2.449219 C 24.414062 -2.742188 24.652344 -3.199219 24.761719 -3.820312 C 24.851562 -4.550781 24.835938 -5.445312 24.6875 -6.523438 C 24.542969 -7.582031 24.140625 -9.210938 23.484375 -11.367188 C 22.824219 -13.523438 22.058594 -15.714844 21.144531 -17.980469 C 20.230469 -20.25 19.226562 -22.3125 18.148438 -24.195312 C 17.066406 -26.058594 16.027344 -27.265625 15.039062 -27.8125 C 14.457031 -28.289062 13.597656 -28.617188 12.464844 -28.800781 C 11.3125 -28.984375 10.398438 -29 9.703125 -28.855469 C 9.007812 -28.710938 8.40625 -28.34375 7.894531 -27.777344 C 7.382812 -27.210938 6.945312 -26.644531 6.597656 -26.097656 C 5.882812 -25 5.152344 -23.539062 4.402344 -21.746094 C 3.65625 -19.9375 2.960938 -18.054688 2.339844 -16.101562 C 1.71875 -14.125 1.1875 -12.226562 0.765625 -10.363281 C 0.328125 -8.496094 0.0898438 -6.960938 0.0351562 -5.757812 C 0 -5.316406 0 -4.859375 0.0195312 -4.386719 C 0.0351562 -3.910156 0.109375 -3.472656 0.21875 -3.050781 C 0.347656 -2.484375 0.601562 -2.046875 0.988281 -1.734375 C 1.425781 -1.371094 1.992188 -1.058594 2.667969 -0.804688 C 3.34375 -0.546875 3.964844 -0.382812 4.53125 -0.292969 C 5.335938 -0.144531 6.03125 -0.164062 6.578125 -0.347656 C 7.128906 -0.53125 7.492188 -1.132812 7.65625 -2.175781 C 7.804688 -3.234375 8.003906 -4.441406 8.296875 -5.773438 C 9.394531 -5.703125 10.746094 -5.792969 12.355469 -6.03125 C 13.960938 -6.25 15.242188 -6.542969 16.15625 -6.871094 Z M 9.171875 -9.339844 C 9.941406 -12.117188 10.820312 -14.691406 11.84375 -17.066406 C 13.011719 -14.839844 14.070312 -12.480469 15.023438 -10.03125 C 12.976562 -9.539062 11.039062 -9.300781 9.171875 -9.339844 Z M 9.171875 -9.339844 "/></g></g></g><g fill="#2b2d42" fill-opacity="1"><g transform="translate(322.406838, 203.376658)"><g><path d="M 4.148438 -1.789062 C 4.222656 -1.753906 4.3125 -1.71875 4.402344 -1.699219 C 4.496094 -1.664062 4.585938 -1.644531 4.695312 -1.625 C 6.578125 -1.078125 8.828125 -0.695312 11.457031 -0.511719 C 14.089844 -0.328125 16.429688 -0.476562 18.476562 -0.96875 C 18.988281 -1.078125 19.515625 -1.261719 20.082031 -1.515625 C 20.648438 -1.753906 21.089844 -2.121094 21.398438 -2.613281 C 21.726562 -3.160156 21.949219 -4.292969 22.058594 -6.03125 C 22.167969 -7.75 21.691406 -8.625 20.632812 -8.644531 C 20.339844 -8.644531 20.027344 -8.589844 19.738281 -8.496094 C 19.445312 -8.40625 19.152344 -8.332031 18.894531 -8.261719 C 16.996094 -7.75 15.203125 -7.457031 13.542969 -7.402344 C 11.878906 -7.328125 10.160156 -7.417969 8.371094 -7.65625 C 8.113281 -10.582031 8.113281 -13.632812 8.332031 -16.8125 C 8.550781 -19.972656 9.046875 -22.804688 9.8125 -25.308594 C 9.886719 -25.601562 9.996094 -25.929688 10.105469 -26.277344 C 10.214844 -26.609375 10.289062 -26.953125 10.308594 -27.285156 C 10.308594 -27.867188 10.015625 -28.308594 9.429688 -28.5625 C 8.84375 -28.820312 8.152344 -28.984375 7.382812 -29.019531 C 6.597656 -29.054688 5.828125 -29 5.0625 -28.875 C 4.292969 -28.726562 3.765625 -28.582031 3.453125 -28.417969 C 2.867188 -28.085938 2.414062 -27.59375 2.121094 -26.972656 C 1.828125 -26.332031 1.589844 -25.730469 1.445312 -25.144531 C 1.097656 -23.976562 0.839844 -22.496094 0.65625 -20.703125 C 0.476562 -18.914062 0.367188 -17.066406 0.347656 -15.167969 C 0.3125 -13.265625 0.367188 -11.421875 0.476562 -9.667969 C 0.585938 -7.914062 0.785156 -6.488281 1.078125 -5.410156 C 1.296875 -4.421875 1.570312 -3.636719 1.9375 -3.050781 C 2.191406 -2.59375 2.539062 -2.285156 2.980469 -2.101562 C 3.253906 -1.972656 3.636719 -1.863281 4.148438 -1.789062 Z M 4.148438 -1.789062 "/></g></g></g><path fill="#ea392c" d="M 127.976562 130.308594 C 105.378906 128.164062 81.773438 126 77.90625 139.679688 C 76.527344 139.542969 74.605469 139.527344 71.984375 139.546875 C 67.984375 128.210938 55.050781 127.132812 22.191406 130.179688 C 19.460938 130.429688 20.351562 133.808594 22.191406 133.636719 C 22.496094 133.636719 24.085938 133.476562 26.492188 133.261719 C 23.53125 155.714844 41.121094 170.585938 57.089844 166.101562 C 68.703125 162.839844 73.996094 151.996094 72.8125 143.027344 C 74.621094 143.0625 76.089844 143.160156 77.257812 143.222656 C 75.417969 161.121094 95.625 173.742188 111.277344 163.148438 C 121.5 156.234375 125.265625 145.34375 123.671875 133.382812 C 125.054688 133.5 126.480469 133.625 127.964844 133.769531 C 129.972656 133.957031 130.542969 130.554688 127.976562 130.308594 Z M 60.78125 160.816406 C 50.167969 167.054688 38.421875 161.730469 32.683594 151.46875 C 28.316406 143.625 29.734375 136.808594 30.066406 132.957031 C 39.648438 132.203125 55.351562 131.421875 62.414062 134.15625 C 73.6875 138.519531 70.554688 155.070312 60.78125 160.816406 Z M 87.445312 159.601562 C 79.199219 152.828125 77.273438 138.609375 87.535156 134.261719 C 87.164062 134.421875 91.089844 130.941406 120.140625 133.101562 C 123.992188 157.59375 100.828125 170.59375 87.453125 159.601562 Z M 87.445312 159.601562 " fill-opacity="1" fill-rule="nonzero"/><path fill="#012b36" d="M 52.058594 137.632812 C 51.144531 137.632812 50.25 137.765625 49.375 138.03125 C 49.621094 138.226562 49.847656 138.445312 50.050781 138.6875 C 50.253906 138.929688 50.429688 139.191406 50.578125 139.46875 C 50.726562 139.746094 50.847656 140.035156 50.9375 140.335938 C 51.027344 140.640625 51.085938 140.949219 51.113281 141.261719 C 51.140625 141.574219 51.136719 141.890625 51.097656 142.203125 C 51.0625 142.515625 50.992188 142.820312 50.894531 143.121094 C 50.792969 143.417969 50.664062 143.707031 50.507812 143.976562 C 50.347656 144.25 50.164062 144.503906 49.953125 144.742188 C 49.742188 144.976562 49.511719 145.1875 49.257812 145.375 C 49.003906 145.566406 48.734375 145.726562 48.445312 145.859375 C 48.160156 145.992188 47.863281 146.097656 47.554688 146.167969 C 47.246094 146.242188 46.933594 146.285156 46.617188 146.292969 C 46.300781 146.304688 45.988281 146.28125 45.675781 146.226562 C 45.363281 146.171875 45.0625 146.089844 44.765625 145.972656 C 44.472656 145.855469 44.191406 145.714844 43.925781 145.539062 C 43.660156 145.367188 43.417969 145.171875 43.191406 144.949219 C 43.085938 145.488281 43.03125 146.035156 43.027344 146.585938 C 43.027344 147.175781 43.085938 147.757812 43.199219 148.335938 C 43.316406 148.914062 43.484375 149.476562 43.710938 150.019531 C 43.9375 150.566406 44.214844 151.082031 44.542969 151.574219 C 44.871094 152.0625 45.242188 152.515625 45.660156 152.933594 C 46.078125 153.351562 46.535156 153.722656 47.027344 154.050781 C 47.515625 154.378906 48.035156 154.65625 48.582031 154.882812 C 49.128906 155.109375 49.691406 155.277344 50.273438 155.394531 C 50.855469 155.511719 51.441406 155.570312 52.03125 155.570312 C 52.625 155.570312 53.210938 155.511719 53.789062 155.398438 C 54.371094 155.285156 54.933594 155.113281 55.480469 154.890625 C 56.027344 154.664062 56.546875 154.390625 57.042969 154.0625 C 57.535156 153.734375 57.988281 153.363281 58.410156 152.949219 C 58.828125 152.53125 59.203125 152.078125 59.53125 151.589844 C 59.859375 151.101562 60.136719 150.582031 60.367188 150.039062 C 60.59375 149.496094 60.765625 148.933594 60.878906 148.355469 C 60.996094 147.777344 61.054688 147.195312 61.054688 146.605469 C 61.054688 146.015625 61 145.433594 60.882812 144.855469 C 60.769531 144.277344 60.597656 143.714844 60.375 143.171875 C 60.148438 142.628906 59.871094 142.109375 59.542969 141.621094 C 59.214844 141.128906 58.839844 140.675781 58.421875 140.257812 C 58.003906 139.84375 57.550781 139.46875 57.058594 139.140625 C 56.566406 138.8125 56.046875 138.535156 55.5 138.3125 C 54.953125 138.085938 54.390625 137.914062 53.808594 137.796875 C 53.230469 137.683594 52.644531 137.625 52.050781 137.625 Z M 52.664062 150.625 C 52.292969 150.625 51.9375 150.554688 51.59375 150.414062 C 51.253906 150.273438 50.949219 150.070312 50.6875 149.808594 C 50.425781 149.546875 50.222656 149.246094 50.082031 148.90625 C 49.941406 148.5625 49.871094 148.207031 49.871094 147.839844 C 49.871094 147.46875 49.941406 147.113281 50.085938 146.773438 C 50.226562 146.433594 50.429688 146.128906 50.691406 145.871094 C 50.953125 145.609375 51.257812 145.40625 51.601562 145.265625 C 51.941406 145.125 52.300781 145.054688 52.671875 145.058594 C 53.042969 145.058594 53.398438 145.128906 53.742188 145.269531 C 54.085938 145.410156 54.386719 145.613281 54.648438 145.875 C 54.910156 146.136719 55.113281 146.4375 55.253906 146.78125 C 55.394531 147.121094 55.464844 147.476562 55.464844 147.847656 C 55.464844 148.214844 55.394531 148.570312 55.25 148.910156 C 55.109375 149.253906 54.90625 149.554688 54.644531 149.8125 C 54.382812 150.074219 54.078125 150.273438 53.734375 150.417969 C 53.394531 150.558594 53.035156 150.628906 52.664062 150.625 Z M 52.664062 150.625 " fill-opacity="1" fill-rule="nonzero"/><path fill="#012b36" d="M 89.097656 146.613281 C 89.105469 147.199219 89.171875 147.773438 89.296875 148.34375 C 89.417969 148.914062 89.597656 149.46875 89.828125 150.003906 C 90.058594 150.539062 90.339844 151.046875 90.671875 151.527344 C 91 152.011719 91.375 152.457031 91.792969 152.863281 C 92.210938 153.273438 92.664062 153.636719 93.15625 153.957031 C 93.644531 154.277344 94.160156 154.546875 94.703125 154.769531 C 95.246094 154.988281 95.804688 155.15625 96.378906 155.265625 C 96.953125 155.378906 97.535156 155.433594 98.117188 155.433594 C 98.703125 155.433594 99.285156 155.375 99.859375 155.261719 C 100.433594 155.148438 100.992188 154.984375 101.535156 154.761719 C 102.074219 154.539062 102.589844 154.269531 103.078125 153.945312 C 103.570312 153.625 104.019531 153.257812 104.4375 152.847656 C 104.855469 152.441406 105.230469 151.996094 105.558594 151.511719 C 105.886719 151.03125 106.167969 150.519531 106.398438 149.984375 C 106.628906 149.449219 106.804688 148.894531 106.925781 148.324219 C 107.046875 147.753906 107.113281 147.175781 107.121094 146.59375 C 107.121094 146.039062 107.066406 145.492188 106.960938 144.949219 C 106.0625 145.84375 104.972656 146.292969 103.699219 146.289062 C 103.21875 146.289062 102.746094 146.214844 102.285156 146.070312 C 101.824219 145.925781 101.398438 145.714844 101.003906 145.4375 C 100.609375 145.160156 100.265625 144.828125 99.976562 144.445312 C 99.683594 144.0625 99.460938 143.644531 99.300781 143.191406 C 99.140625 142.738281 99.050781 142.269531 99.039062 141.789062 C 99.023438 141.308594 99.082031 140.835938 99.214844 140.375 C 99.347656 139.914062 99.546875 139.480469 99.816406 139.082031 C 100.085938 138.683594 100.40625 138.332031 100.785156 138.03125 C 99.90625 137.765625 99.011719 137.632812 98.097656 137.632812 C 97.503906 137.632812 96.917969 137.691406 96.339844 137.808594 C 95.757812 137.921875 95.195312 138.09375 94.648438 138.320312 C 94.101562 138.546875 93.582031 138.824219 93.09375 139.152344 C 92.601562 139.480469 92.144531 139.851562 91.726562 140.269531 C 91.308594 140.6875 90.9375 141.140625 90.609375 141.628906 C 90.28125 142.121094 90.003906 142.636719 89.777344 143.179688 C 89.550781 143.726562 89.382812 144.285156 89.269531 144.863281 C 89.152344 145.441406 89.097656 146.027344 89.097656 146.613281 Z M 94.691406 147.847656 C 94.691406 147.476562 94.761719 147.121094 94.902344 146.78125 C 95.042969 146.4375 95.246094 146.136719 95.507812 145.875 C 95.769531 145.613281 96.074219 145.410156 96.414062 145.269531 C 96.757812 145.128906 97.113281 145.058594 97.484375 145.058594 C 97.855469 145.054688 98.214844 145.125 98.554688 145.265625 C 98.898438 145.40625 99.203125 145.609375 99.464844 145.871094 C 99.726562 146.128906 99.929688 146.433594 100.074219 146.773438 C 100.214844 147.113281 100.285156 147.46875 100.285156 147.839844 C 100.289062 148.207031 100.214844 148.5625 100.074219 148.90625 C 99.933594 149.246094 99.730469 149.546875 99.46875 149.808594 C 99.207031 150.070312 98.90625 150.273438 98.5625 150.414062 C 98.21875 150.554688 97.863281 150.625 97.492188 150.625 C 97.121094 150.628906 96.765625 150.558594 96.421875 150.417969 C 96.078125 150.277344 95.773438 150.074219 95.511719 149.816406 C 95.25 149.554688 95.046875 149.253906 94.90625 148.910156 C 94.761719 148.570312 94.691406 148.214844 94.691406 147.847656 Z M 94.691406 147.847656 " fill-opacity="1" fill-rule="nonzero"/><g clip-path="url(#bfacf5de6e)"><path fill="#012b36" d="M 68.964844 129.878906 C 64.570312 126.996094 59.722656 126.140625 54.894531 125.992188 C 50.0625 125.839844 45.183594 126.628906 40.027344 127.117188 C 38.734375 127.230469 37.433594 127.34375 36.121094 127.410156 C 34.804688 127.476562 33.464844 127.5 32.121094 127.464844 C 30.757812 127.429688 29.398438 127.320312 28.046875 127.140625 C 26.679688 126.941406 25.332031 126.652344 24.007812 126.273438 C 22.683594 125.878906 21.398438 125.382812 20.152344 124.785156 C 18.90625 124.179688 17.734375 123.460938 16.628906 122.628906 C 15.539062 121.792969 14.566406 120.835938 13.710938 119.765625 C 12.886719 118.699219 12.238281 117.542969 11.765625 116.285156 C 12.683594 117.171875 13.667969 117.976562 14.722656 118.691406 C 15.761719 119.34375 16.84375 119.910156 17.972656 120.390625 C 20.207031 121.292969 22.515625 121.894531 24.90625 122.195312 C 29.625 122.839844 34.460938 122.304688 39.527344 121.835938 L 43.367188 121.5 C 44.664062 121.417969 45.972656 121.328125 47.296875 121.300781 C 50.003906 121.207031 52.691406 121.390625 55.355469 121.855469 C 56.703125 122.105469 58.023438 122.441406 59.320312 122.871094 C 60.617188 123.308594 61.871094 123.855469 63.074219 124.503906 C 64.269531 125.167969 65.378906 125.949219 66.402344 126.847656 C 67.394531 127.742188 68.25 128.753906 68.964844 129.878906 Z M 68.964844 129.878906 " fill-opacity="1" fill-rule="nonzero"/></g><path fill="#012b36" d="M 67.1875 126.21875 C 65.449219 125.492188 63.671875 124.863281 61.863281 124.328125 C 60.152344 123.835938 58.410156 123.476562 56.640625 123.246094 C 54.933594 123.027344 53.21875 122.949219 51.5 123.015625 C 50.652344 123.0625 49.820312 123.101562 48.957031 123.222656 C 48.09375 123.347656 47.21875 123.453125 46.328125 123.597656 L 43.570312 124.039062 C 42.628906 124.167969 41.675781 124.316406 40.6875 124.410156 C 39.703125 124.503906 38.699219 124.582031 37.671875 124.570312 C 36.621094 124.585938 35.578125 124.507812 34.539062 124.34375 C 32.421875 124.027344 30.457031 123.296875 28.65625 122.140625 C 26.898438 120.984375 25.457031 119.265625 24.957031 117.355469 C 26.355469 118.554688 27.953125 119.359375 29.753906 119.769531 C 31.421875 120.144531 33.105469 120.28125 34.8125 120.171875 C 38.136719 120 41.609375 118.96875 45.476562 118.355469 C 47.40625 118.066406 49.46875 117.851562 51.566406 117.992188 C 53.644531 118.121094 55.664062 118.523438 57.628906 119.207031 C 61.496094 120.558594 64.972656 122.953125 67.1875 126.21875 Z M 67.1875 126.21875 " fill-opacity="1" fill-rule="nonzero"/><g clip-path="url(#09d7cd6860)"><path fill="#012b36" d="M 81.1875 129.878906 C 85.582031 126.996094 90.429688 126.140625 95.257812 125.992188 C 100.085938 125.839844 104.96875 126.628906 110.125 127.117188 C 111.414062 127.230469 112.71875 127.34375 114.03125 127.410156 C 115.347656 127.476562 116.691406 127.5 118.035156 127.464844 C 119.398438 127.429688 120.753906 127.324219 122.105469 127.144531 C 123.46875 126.949219 124.816406 126.660156 126.140625 126.277344 C 127.46875 125.886719 128.753906 125.390625 130 124.792969 C 131.246094 124.1875 132.417969 123.46875 133.523438 122.636719 C 134.613281 121.796875 135.582031 120.839844 136.4375 119.765625 C 137.257812 118.703125 137.90625 117.542969 138.378906 116.285156 C 137.46875 117.171875 136.488281 117.972656 135.4375 118.691406 C 134.402344 119.34375 133.320312 119.910156 132.195312 120.390625 C 129.964844 121.292969 127.652344 121.894531 125.261719 122.195312 C 120.546875 122.839844 115.707031 122.304688 110.640625 121.835938 L 106.800781 121.5 C 105.503906 121.417969 104.195312 121.328125 102.871094 121.300781 C 100.167969 121.207031 97.480469 121.394531 94.8125 121.855469 C 93.464844 122.105469 92.140625 122.441406 90.839844 122.871094 C 89.542969 123.308594 88.292969 123.855469 87.085938 124.503906 C 85.890625 125.167969 84.785156 125.949219 83.757812 126.847656 C 82.765625 127.742188 81.90625 128.753906 81.1875 129.878906 Z M 81.1875 129.878906 " fill-opacity="1" fill-rule="nonzero"/></g><path fill="#012b36" d="M 82.96875 126.21875 C 84.707031 125.492188 86.484375 124.863281 88.292969 124.328125 C 90.003906 123.835938 91.746094 123.476562 93.511719 123.246094 C 95.222656 123.027344 96.9375 122.949219 98.65625 123.015625 C 99.503906 123.0625 100.339844 123.101562 101.203125 123.222656 C 102.0625 123.347656 102.941406 123.453125 103.832031 123.597656 L 106.578125 124.039062 C 107.519531 124.167969 108.476562 124.316406 109.460938 124.410156 C 110.445312 124.503906 111.453125 124.582031 112.476562 124.570312 C 113.527344 124.585938 114.570312 124.507812 115.609375 124.34375 C 117.726562 124.03125 119.691406 123.296875 121.496094 122.140625 C 123.25 120.984375 124.691406 119.265625 125.191406 117.355469 C 123.792969 118.554688 122.195312 119.359375 120.394531 119.769531 C 118.730469 120.144531 117.042969 120.277344 115.339844 120.171875 C 112.015625 120 108.539062 118.96875 104.675781 118.355469 C 102.742188 118.066406 100.683594 117.851562 98.585938 117.992188 C 96.507812 118.121094 94.488281 118.523438 92.523438 119.207031 C 88.660156 120.558594 85.183594 122.953125 82.96875 126.21875 Z M 82.96875 126.21875 " fill-opacity="1" fill-rule="nonzero"/><path fill="#006078" d="M 75.035156 128.355469 C 75.046875 128.332031 75.0625 128.3125 75.082031 128.289062 C 75.097656 128.3125 75.105469 128.335938 75.121094 128.355469 Z M 75.035156 128.355469 " fill-opacity="1" fill-rule="nonzero"/><path fill="#006078" d="M 108.789062 93.800781 L 108.789062 114.527344 C 102.246094 114.183594 95.671875 114.195312 89.429688 116.042969 C 83.683594 117.742188 78.207031 121.339844 75.085938 126.296875 C 71.953125 121.339844 66.476562 117.753906 60.730469 116.042969 C 54.484375 114.195312 47.90625 114.183594 41.363281 114.527344 L 41.363281 93.800781 Z M 108.789062 93.800781 " fill-opacity="1" fill-rule="nonzero"/><path fill="#012b36" d="M 44.292969 178.023438 C 50.367188 186.289062 52.082031 197.175781 50.640625 207.316406 C 49.738281 213.640625 47.714844 219.730469 45.078125 225.570312 C 43.457031 224.6875 41.882812 223.730469 40.359375 222.695312 C 38.832031 221.65625 37.359375 220.550781 35.945312 219.367188 C 34.53125 218.1875 33.175781 216.9375 31.886719 215.621094 C 30.59375 214.308594 29.371094 212.929688 28.21875 211.496094 C 27.066406 210.058594 25.984375 208.570312 24.980469 207.027344 C 23.976562 205.484375 23.050781 203.894531 22.203125 202.257812 C 21.355469 200.625 20.59375 198.953125 19.914062 197.242188 C 19.234375 195.53125 18.640625 193.792969 18.136719 192.023438 C 17.628906 190.257812 17.214844 188.464844 16.886719 186.65625 C 16.558594 184.847656 16.320312 183.023438 16.175781 181.191406 C 16.03125 179.359375 15.976562 177.523438 16.015625 175.683594 C 16.050781 173.84375 16.179688 172.011719 16.402344 170.1875 C 16.621094 168.363281 16.933594 166.550781 17.332031 164.757812 C 17.734375 162.960938 18.222656 161.191406 18.800781 159.445312 C 19.378906 157.695312 20.042969 155.984375 20.792969 154.300781 C 21.539062 152.621094 22.371094 150.980469 23.285156 149.382812 C 23.582031 154.914062 26.886719 160.085938 30.757812 164.207031 C 35.179688 168.914062 40.480469 172.828125 44.292969 178.023438 Z M 44.292969 178.023438 " fill-opacity="1" fill-rule="nonzero"/><path fill="#012b36" d="M 134.15625 176.945312 C 134.160156 179.441406 133.996094 181.921875 133.664062 184.394531 C 133.328125 186.867188 132.832031 189.304688 132.164062 191.707031 C 131.5 194.113281 130.675781 196.460938 129.691406 198.753906 C 128.707031 201.046875 127.570312 203.261719 126.285156 205.402344 C 125 207.542969 123.574219 209.585938 122.011719 211.535156 C 120.445312 213.484375 118.757812 215.316406 116.941406 217.035156 C 115.128906 218.757812 113.207031 220.347656 111.175781 221.808594 C 109.148438 223.269531 107.027344 224.585938 104.816406 225.761719 C 102.132812 219.867188 100.070312 213.714844 99.164062 207.320312 C 97.726562 197.179688 99.4375 186.292969 105.511719 178.027344 C 109.328125 172.832031 114.628906 168.917969 119.042969 164.21875 C 123.042969 159.960938 126.445312 154.558594 126.550781 148.824219 L 126.832031 149.308594 C 129.242188 153.519531 131.066406 157.964844 132.308594 162.652344 C 133.550781 167.335938 134.167969 172.101562 134.15625 176.945312 Z M 134.15625 176.945312 " fill-opacity="1" fill-rule="nonzero"/><path fill="#012b36" d="M 80.039062 160.496094 C 79.859375 162.671875 76.613281 167.3125 75.089844 167.566406 C 73.566406 167.3125 70.316406 162.671875 70.140625 160.496094 C 70.316406 158.320312 73.566406 153.675781 75.089844 153.425781 C 76.601562 153.679688 79.851562 158.320312 80.039062 160.496094 Z M 80.039062 160.496094 " fill-opacity="1" fill-rule="nonzero"/><g clip-path="url(#b033260626)"><path fill="#012b36" d="M 75.078125 80.910156 L 12.328125 94.664062 L 75.078125 108.421875 L 137.828125 94.664062 Z M 75.078125 80.910156 " fill-opacity="1" fill-rule="nonzero"/></g><g clip-path="url(#e0611452a3)"><path fill="#006078" d="M 68.402344 221.394531 C 68.042969 221.394531 67.699219 221.457031 67.363281 221.582031 C 67.027344 221.707031 66.722656 221.886719 66.453125 222.117188 C 66.183594 222.351562 65.960938 222.625 65.789062 222.933594 C 65.613281 223.246094 65.5 223.578125 65.445312 223.929688 C 65.136719 223.710938 64.792969 223.554688 64.421875 223.46875 C 64.050781 223.378906 63.675781 223.363281 63.300781 223.417969 C 62.921875 223.472656 62.570312 223.597656 62.238281 223.785156 C 61.910156 223.976562 61.628906 224.222656 61.394531 224.523438 L 61.394531 224.386719 C 61.394531 223.992188 61.316406 223.609375 61.164062 223.242188 C 61.011719 222.878906 60.796875 222.554688 60.511719 222.273438 C 60.230469 221.992188 59.90625 221.777344 59.539062 221.625 C 59.171875 221.472656 58.789062 221.398438 58.390625 221.398438 C 57.992188 221.398438 57.605469 221.472656 57.238281 221.625 C 56.871094 221.777344 56.546875 221.992188 56.265625 222.273438 C 55.984375 222.554688 55.765625 222.878906 55.613281 223.242188 C 55.460938 223.609375 55.382812 223.992188 55.382812 224.386719 L 55.382812 232.363281 C 55.382812 232.671875 55.429688 232.976562 55.519531 233.273438 C 55.613281 233.570312 55.75 233.84375 55.929688 234.097656 C 56.109375 234.351562 56.324219 234.574219 56.574219 234.757812 C 56.824219 234.945312 57.09375 235.089844 57.390625 235.191406 C 57.683594 235.296875 57.988281 235.351562 58.296875 235.359375 C 58.609375 235.367188 58.917969 235.324219 59.214844 235.238281 C 59.515625 235.152344 59.792969 235.019531 60.050781 234.84375 C 60.308594 234.671875 60.535156 234.460938 60.726562 234.214844 L 60.726562 234.355469 C 60.695312 234.75 60.742188 235.132812 60.867188 235.507812 C 60.988281 235.882812 61.179688 236.222656 61.4375 236.519531 C 61.695312 236.820312 62 237.058594 62.355469 237.238281 C 62.707031 237.417969 63.082031 237.519531 63.476562 237.550781 C 63.871094 237.582031 64.257812 237.535156 64.636719 237.414062 C 65.011719 237.289062 65.351562 237.101562 65.652344 236.84375 C 65.953125 236.585938 66.191406 236.285156 66.371094 235.933594 C 66.550781 235.578125 66.65625 235.207031 66.6875 234.8125 C 67.199219 235.175781 67.773438 235.359375 68.402344 235.359375 C 68.800781 235.355469 69.183594 235.28125 69.550781 235.128906 C 69.917969 234.976562 70.242188 234.761719 70.523438 234.480469 C 70.804688 234.199219 71.023438 233.875 71.175781 233.511719 C 71.328125 233.144531 71.40625 232.765625 71.40625 232.367188 L 71.40625 224.386719 C 71.40625 223.992188 71.328125 223.609375 71.175781 223.242188 C 71.023438 222.875 70.808594 222.554688 70.527344 222.273438 C 70.246094 221.992188 69.917969 221.773438 69.550781 221.621094 C 69.183594 221.46875 68.800781 221.394531 68.402344 221.394531 Z M 68.402344 221.394531 " fill-opacity="1" fill-rule="nonzero"/></g><g clip-path="url(#d0b8ff39c4)"><path fill="#006078" d="M 81.753906 221.394531 C 82.109375 221.394531 82.457031 221.457031 82.792969 221.582031 C 83.128906 221.707031 83.429688 221.886719 83.703125 222.117188 C 83.972656 222.351562 84.195312 222.625 84.367188 222.933594 C 84.542969 223.246094 84.65625 223.578125 84.710938 223.929688 C 85.023438 223.710938 85.363281 223.554688 85.734375 223.464844 C 86.109375 223.375 86.484375 223.359375 86.863281 223.414062 C 87.242188 223.46875 87.59375 223.59375 87.925781 223.785156 C 88.253906 223.976562 88.539062 224.222656 88.773438 224.523438 L 88.773438 224.386719 C 88.785156 224 88.867188 223.625 89.023438 223.269531 C 89.183594 222.914062 89.402344 222.597656 89.679688 222.328125 C 89.960938 222.054688 90.28125 221.847656 90.644531 221.699219 C 91.007812 221.554688 91.386719 221.480469 91.777344 221.480469 C 92.167969 221.480469 92.542969 221.554688 92.90625 221.699219 C 93.269531 221.847656 93.589844 222.054688 93.871094 222.328125 C 94.152344 222.597656 94.371094 222.914062 94.527344 223.269531 C 94.683594 223.625 94.769531 224 94.777344 224.386719 L 94.777344 232.363281 C 94.78125 232.671875 94.734375 232.976562 94.640625 233.273438 C 94.546875 233.566406 94.414062 233.84375 94.234375 234.097656 C 94.050781 234.351562 93.839844 234.570312 93.589844 234.757812 C 93.339844 234.945312 93.070312 235.085938 92.773438 235.191406 C 92.480469 235.292969 92.179688 235.347656 91.867188 235.355469 C 91.554688 235.363281 91.25 235.324219 90.949219 235.234375 C 90.652344 235.148438 90.371094 235.019531 90.113281 234.84375 C 89.855469 234.667969 89.632812 234.460938 89.4375 234.214844 L 89.4375 234.355469 C 89.46875 234.75 89.421875 235.132812 89.300781 235.507812 C 89.175781 235.882812 88.984375 236.222656 88.726562 236.519531 C 88.46875 236.820312 88.164062 237.058594 87.8125 237.238281 C 87.457031 237.417969 87.082031 237.519531 86.6875 237.550781 C 86.292969 237.582031 85.90625 237.535156 85.53125 237.414062 C 85.152344 237.289062 84.8125 237.101562 84.511719 236.84375 C 84.210938 236.585938 83.972656 236.285156 83.792969 235.933594 C 83.613281 235.578125 83.507812 235.207031 83.476562 234.8125 C 82.964844 235.175781 82.390625 235.359375 81.761719 235.359375 C 81.363281 235.355469 80.980469 235.28125 80.613281 235.128906 C 80.246094 234.976562 79.921875 234.761719 79.640625 234.480469 C 79.359375 234.199219 79.144531 233.875 78.988281 233.511719 C 78.835938 233.144531 78.761719 232.765625 78.761719 232.367188 L 78.761719 224.386719 C 78.761719 223.992188 78.835938 223.613281 78.988281 223.246094 C 79.140625 222.878906 79.355469 222.558594 79.636719 222.277344 C 79.917969 221.996094 80.238281 221.777344 80.605469 221.625 C 80.972656 221.472656 81.355469 221.394531 81.753906 221.394531 Z M 81.753906 221.394531 " fill-opacity="1" fill-rule="nonzero"/></g><path fill="#ea392c" d="M 67.441406 186.28125 C 65.75 186.28125 64.472656 184.652344 64.472656 182.492188 C 64.472656 181.941406 64.984375 181.496094 65.621094 181.496094 C 66.261719 181.496094 66.773438 181.941406 66.773438 182.492188 C 66.773438 183.605469 67.28125 184.238281 67.476562 184.289062 C 67.632812 184.238281 68.144531 183.601562 68.144531 182.492188 C 68.144531 181.941406 68.65625 181.496094 69.292969 181.496094 C 69.933594 181.496094 70.441406 181.941406 70.441406 182.492188 C 70.410156 184.652344 69.136719 186.28125 67.441406 186.28125 Z M 67.441406 186.28125 " fill-opacity="1" fill-rule="nonzero"/><path fill="#ea392c" d="M 82.714844 186.28125 C 81.023438 186.28125 79.742188 184.652344 79.742188 182.492188 C 79.742188 181.941406 80.257812 181.496094 80.894531 181.496094 C 81.53125 181.496094 82.042969 181.941406 82.042969 182.492188 C 82.042969 183.605469 82.550781 184.238281 82.746094 184.289062 C 82.90625 184.238281 83.414062 183.601562 83.414062 182.492188 C 83.414062 181.941406 83.925781 181.496094 84.5625 181.496094 C 85.199219 181.496094 85.710938 181.941406 85.710938 182.492188 C 85.683594 184.652344 84.40625 186.28125 82.714844 186.28125 Z M 82.714844 186.28125 " fill-opacity="1" fill-rule="nonzero"/><path fill="#ea392c" d="M 59.523438 195.667969 C 57.832031 195.667969 56.554688 194.039062 56.554688 191.878906 C 56.554688 191.328125 57.066406 190.878906 57.703125 190.878906 C 58.34375 190.878906 58.851562 191.339844 58.851562 191.878906 C 58.851562 192.988281 59.363281 193.621094 59.558594 193.675781 C 59.714844 193.621094 60.226562 192.988281 60.226562 191.878906 C 60.226562 191.328125 60.734375 190.878906 61.375 190.878906 C 62.015625 190.878906 62.523438 191.339844 62.523438 191.878906 C 62.492188 194.039062 61.214844 195.667969 59.523438 195.667969 Z M 59.523438 195.667969 " fill-opacity="1" fill-rule="nonzero"/><path fill="#ea392c" d="M 75.078125 195.667969 C 73.386719 195.667969 72.109375 194.039062 72.109375 191.878906 C 72.109375 191.328125 72.621094 190.878906 73.257812 190.878906 C 73.894531 190.878906 74.40625 191.339844 74.40625 191.878906 C 74.40625 192.988281 74.917969 193.621094 75.109375 193.675781 C 75.269531 193.621094 75.777344 192.988281 75.777344 191.878906 C 75.777344 191.328125 76.289062 190.878906 76.925781 190.878906 C 77.5625 190.878906 78.074219 191.339844 78.074219 191.878906 C 78.046875 194.039062 76.769531 195.667969 75.078125 195.667969 Z M 75.078125 195.667969 " fill-opacity="1" fill-rule="nonzero"/><path fill="#ea392c" d="M 90.632812 195.667969 C 88.941406 195.667969 87.664062 194.039062 87.664062 191.878906 C 87.664062 191.328125 88.175781 190.878906 88.8125 190.878906 C 89.449219 190.878906 89.960938 191.339844 89.960938 191.878906 C 89.960938 192.988281 90.46875 193.621094 90.664062 193.675781 C 90.824219 193.621094 91.332031 192.988281 91.332031 191.878906 C 91.332031 191.328125 91.84375 190.878906 92.480469 190.878906 C 93.117188 190.878906 93.628906 191.339844 93.628906 191.878906 C 93.601562 194.039062 92.328125 195.667969 90.632812 195.667969 Z M 90.632812 195.667969 " fill-opacity="1" fill-rule="nonzero"/><path fill="#ea392c" d="M 59.523438 214.4375 C 57.832031 214.4375 56.554688 212.808594 56.554688 210.648438 C 56.554688 210.097656 57.066406 209.652344 57.703125 209.652344 C 58.34375 209.652344 58.851562 210.097656 58.851562 210.648438 C 58.851562 211.757812 59.363281 212.390625 59.558594 212.445312 C 59.714844 212.390625 60.226562 211.757812 60.226562 210.648438 C 60.226562 210.097656 60.734375 209.652344 61.375 209.652344 C 62.015625 209.652344 62.523438 210.097656 62.523438 210.648438 C 62.492188 212.808594 61.214844 214.4375 59.523438 214.4375 Z M 59.523438 214.4375 " fill-opacity="1" fill-rule="nonzero"/><path fill="#ea392c" d="M 75.078125 214.4375 C 73.386719 214.4375 72.109375 212.808594 72.109375 210.648438 C 72.109375 210.097656 72.621094 209.652344 73.257812 209.652344 C 73.894531 209.652344 74.40625 210.097656 74.40625 210.648438 C 74.40625 211.757812 74.917969 212.390625 75.109375 212.445312 C 75.269531 212.390625 75.777344 211.757812 75.777344 210.648438 C 75.777344 210.097656 76.289062 209.652344 76.925781 209.652344 C 77.5625 209.652344 78.074219 210.097656 78.074219 210.648438 C 78.046875 212.808594 76.769531 214.4375 75.078125 214.4375 Z M 75.078125 214.4375 " fill-opacity="1" fill-rule="nonzero"/><path fill="#ea392c" d="M 90.632812 214.4375 C 88.941406 214.4375 87.664062 212.808594 87.664062 210.648438 C 87.664062 210.097656 88.175781 209.652344 88.8125 209.652344 C 89.449219 209.652344 89.960938 210.097656 89.960938 210.648438 C 89.960938 211.757812 90.46875 212.390625 90.664062 212.445312 C 90.824219 212.390625 91.332031 211.757812 91.332031 210.648438 C 91.332031 210.097656 91.84375 209.652344 92.480469 209.652344 C 93.117188 209.652344 93.628906 210.097656 93.628906 210.648438 C 93.601562 212.808594 92.328125 214.4375 90.632812 214.4375 Z M 90.632812 214.4375 " fill-opacity="1" fill-rule="nonzero"/><path fill="#ea392c" d="M 67.441406 205.050781 C 65.75 205.050781 64.472656 203.421875 64.472656 201.261719 C 64.472656 200.714844 64.984375 200.265625 65.621094 200.265625 C 66.261719 200.265625 66.773438 200.714844 66.773438 201.261719 C 66.773438 202.375 67.28125 203.007812 67.476562 203.0625 C 67.632812 203.007812 68.144531 202.375 68.144531 201.261719 C 68.144531 200.714844 68.65625 200.265625 69.292969 200.265625 C 69.933594 200.265625 70.441406 200.714844 70.441406 201.261719 C 70.410156 203.421875 69.136719 205.050781 67.441406 205.050781 Z M 67.441406 205.050781 " fill-opacity="1" fill-rule="nonzero"/><path fill="#ea392c" d="M 82.714844 205.050781 C 81.023438 205.050781 79.742188 203.421875 79.742188 201.261719 C 79.742188 200.714844 80.257812 200.265625 80.894531 200.265625 C 81.53125 200.265625 82.042969 200.714844 82.042969 201.261719 C 82.042969 202.375 82.550781 203.007812 82.746094 203.0625 C 82.90625 203.007812 83.414062 202.375 83.414062 201.261719 C 83.414062 200.714844 83.925781 200.265625 84.5625 200.265625 C 85.199219 200.265625 85.710938 200.714844 85.710938 201.261719 C 85.683594 203.421875 84.40625 205.050781 82.714844 205.050781 Z M 82.714844 205.050781 " fill-opacity="1" fill-rule="nonzero"/></svg>